<svg width="12.00cm" height="11.20cm" viewBox="0 0 600 564" xmlns="http://www.w3.org/2000/svg" version="1.1">
  undefined
  undefined
  undefined
  undefined
  undefined
  undefined
  undefined
  undefined
  undefined
  undefined
  undefined
  undefined
  undefined
  undefined
  undefined
  undefined
  undefined
  undefined
  undefined
  undefined
  undefined
  undefined
  undefined
  undefined
  undefined
  undefined
  <g stroke-linecap="round" stroke-linejoin="round">
    <circle cx="160.00" cy="67.20" r="20.00" stroke="#000000" stroke-width="1.4" fill="#ffffff"/>
    <circle cx="160.00" cy="67.20" r="15.00" stroke="#000000" stroke-width="1.4" fill="#ffffff"/>
    <path d="M 81.19 69.51 L 136.01 67.90 M 131.16 73.05 L 136.01 67.90 L 130.87 63.05" stroke="#000000" stroke-width="1.4" fill="none"/>
    <g>
      <text x="108.89" y="83.20" style="font-size:14px;font-style:normal;font-weight:normal;text-align:center;text-anchor:middle;fill:#ffffff;fill-opacity:1;stroke:none;stroke-width:1px;stroke-linecap:butt;stroke-linejoin:miter;stroke-opacity:1;font-family:Bitstream Vera Sans">1</text>
    </g>
    <g>
      <text x="108.89" y="83.20" style="font-size:14px;font-style:normal;font-weight:normal;text-align:center;text-anchor:middle;fill:#000000;fill-opacity:1;stroke:none;stroke-width:1px;stroke-linecap:butt;stroke-linejoin:miter;stroke-opacity:1;font-family:Bitstream Vera Sans">1</text>
    </g>
    <path d="M 146.28 47.51 L 144.92 46.04 M 140.17 40.90 L 138.82 39.43 M 134.07 34.29 L 132.71 32.82 M 127.96 27.67 L 126.61 26.20 M 121.86 21.06 L 120.50 19.59 M 120.00 19.04 M 118.85 25.19 L 118.49 27.16 M 117.21 34.04 L 116.84 36.01 M 115.56 42.89 L 115.19 44.85 M 113.91 51.74 L 113.55 53.70 M 112.27 60.58 L 111.90 62.55 M 110.87 68.05 M 106.87 62.22 L 110.87 68.05 L 116.71 64.05" stroke="#000000" stroke-width="1.4" fill="none"/>
    <g>
      <text x="109.15" y="27.17" style="font-size:14px;font-style:normal;font-weight:normal;text-align:right;text-anchor:end;fill:#ffffff;fill-opacity:1;stroke:none;stroke-width:1px;stroke-linecap:butt;stroke-linejoin:miter;stroke-opacity:1;font-family:Bitstream Vera Sans">+1</text>
    </g>
    <g>
      <text x="109.15" y="27.17" style="font-size:14px;font-style:normal;font-weight:normal;text-align:right;text-anchor:end;fill:#000000;fill-opacity:1;stroke:none;stroke-width:1px;stroke-linecap:butt;stroke-linejoin:miter;stroke-opacity:1;font-family:Bitstream Vera Sans">+1</text>
    </g>
    <circle cx="57.20" cy="70.21" r="20.00" stroke="#000000" stroke-width="1.4" fill="#ffffff"/>
    <g>
      <circle cx="45.15" cy="68.20" r="6.00" stroke="none" stroke-width="0.0" fill="#000000"/>
      <circle cx="45.15" cy="68.20" r="4.00" stroke="none" stroke-width="0.0" fill="#808080"/>
      <circle cx="45.15" cy="68.20" r="3.00" stroke="none" stroke-width="0.0" fill="#000000"/>
    </g>
    <g>
      <circle cx="45.15" cy="64.20" r="6.00" stroke="none" stroke-width="0.0" fill="#000000"/>
      <circle cx="45.15" cy="64.20" r="4.00" stroke="none" stroke-width="0.0" fill="#808080"/>
      <circle cx="45.15" cy="64.20" r="3.00" stroke="none" stroke-width="0.0" fill="#000000"/>
    </g>
    <g>
      <circle cx="45.15" cy="60.20" r="6.00" stroke="none" stroke-width="0.0" fill="#000000"/>
      <circle cx="45.15" cy="60.20" r="4.00" stroke="none" stroke-width="0.0" fill="#808080"/>
      <circle cx="45.15" cy="60.20" r="3.00" stroke="none" stroke-width="0.0" fill="#000000"/>
    </g>
    <g>
      <circle cx="45.15" cy="56.20" r="6.00" stroke="none" stroke-width="0.0" fill="#000000"/>
      <circle cx="45.15" cy="56.20" r="4.00" stroke="none" stroke-width="0.0" fill="#808080"/>
      <circle cx="45.15" cy="56.20" r="3.00" stroke="none" stroke-width="0.0" fill="#000000"/>
    </g>
    <g>
      <circle cx="45.15" cy="52.20" r="6.00" stroke="none" stroke-width="0.0" fill="#000000"/>
      <circle cx="45.15" cy="52.20" r="4.00" stroke="none" stroke-width="0.0" fill="#808080"/>
      <circle cx="45.15" cy="52.20" r="3.00" stroke="none" stroke-width="0.0" fill="#000000"/>
    </g>
    <g>
      <circle cx="57.15" cy="68.20" r="6.00" stroke="none" stroke-width="0.0" fill="#000000"/>
      <circle cx="57.15" cy="68.20" r="4.00" stroke="none" stroke-width="0.0" fill="#808080"/>
      <circle cx="57.15" cy="68.20" r="3.00" stroke="none" stroke-width="0.0" fill="#000000"/>
    </g>
    <g>
      <circle cx="57.15" cy="64.20" r="6.00" stroke="none" stroke-width="0.0" fill="#000000"/>
      <circle cx="57.15" cy="64.20" r="4.00" stroke="none" stroke-width="0.0" fill="#808080"/>
      <circle cx="57.15" cy="64.20" r="3.00" stroke="none" stroke-width="0.0" fill="#000000"/>
    </g>
    <g>
      <circle cx="57.15" cy="60.20" r="6.00" stroke="none" stroke-width="0.0" fill="#000000"/>
      <circle cx="57.15" cy="60.20" r="4.00" stroke="none" stroke-width="0.0" fill="#808080"/>
      <circle cx="57.15" cy="60.20" r="3.00" stroke="none" stroke-width="0.0" fill="#000000"/>
    </g>
    <g>
      <circle cx="57.15" cy="56.20" r="6.00" stroke="none" stroke-width="0.0" fill="#000000"/>
      <circle cx="57.15" cy="56.20" r="4.00" stroke="none" stroke-width="0.0" fill="#808080"/>
      <circle cx="57.15" cy="56.20" r="3.00" stroke="none" stroke-width="0.0" fill="#000000"/>
    </g>
    <g>
      <circle cx="57.15" cy="52.20" r="6.00" stroke="none" stroke-width="0.0" fill="#000000"/>
      <circle cx="57.15" cy="52.20" r="4.00" stroke="none" stroke-width="0.0" fill="#808080"/>
      <circle cx="57.15" cy="52.20" r="3.00" stroke="none" stroke-width="0.0" fill="#000000"/>
    </g>
    <path d="M 251.99 75.30 L 307.01 73.70 M 302.16 78.84 L 307.01 73.70 L 301.87 68.85" stroke="#000000" stroke-width="1.4" fill="none"/>
    <g>
      <text x="279.79" y="89.00" style="font-size:14px;font-style:normal;font-weight:normal;text-align:center;text-anchor:middle;fill:#ffffff;fill-opacity:1;stroke:none;stroke-width:1px;stroke-linecap:butt;stroke-linejoin:miter;stroke-opacity:1;font-family:Bitstream Vera Sans">1</text>
    </g>
    <g>
      <text x="279.79" y="89.00" style="font-size:14px;font-style:normal;font-weight:normal;text-align:center;text-anchor:middle;fill:#000000;fill-opacity:1;stroke:none;stroke-width:1px;stroke-linecap:butt;stroke-linejoin:miter;stroke-opacity:1;font-family:Bitstream Vera Sans">1</text>
    </g>
    <circle cx="228.00" cy="76.00" r="20.00" stroke="#000000" stroke-width="1.4" fill="#ffffff"/>
    <g>
      <circle cx="216.00" cy="74.00" r="6.00" stroke="none" stroke-width="0.0" fill="#000000"/>
      <circle cx="216.00" cy="74.00" r="4.00" stroke="none" stroke-width="0.0" fill="#808080"/>
      <circle cx="216.00" cy="74.00" r="3.00" stroke="none" stroke-width="0.0" fill="#000000"/>
    </g>
    <g>
      <circle cx="216.00" cy="70.00" r="6.00" stroke="none" stroke-width="0.0" fill="#000000"/>
      <circle cx="216.00" cy="70.00" r="4.00" stroke="none" stroke-width="0.0" fill="#808080"/>
      <circle cx="216.00" cy="70.00" r="3.00" stroke="none" stroke-width="0.0" fill="#000000"/>
    </g>
    <g>
      <circle cx="216.00" cy="66.00" r="6.00" stroke="none" stroke-width="0.0" fill="#000000"/>
      <circle cx="216.00" cy="66.00" r="4.00" stroke="none" stroke-width="0.0" fill="#808080"/>
      <circle cx="216.00" cy="66.00" r="3.00" stroke="none" stroke-width="0.0" fill="#000000"/>
    </g>
    <g>
      <circle cx="216.00" cy="62.00" r="6.00" stroke="none" stroke-width="0.0" fill="#000000"/>
      <circle cx="216.00" cy="62.00" r="4.00" stroke="none" stroke-width="0.0" fill="#808080"/>
      <circle cx="216.00" cy="62.00" r="3.00" stroke="none" stroke-width="0.0" fill="#000000"/>
    </g>
    <g>
      <circle cx="216.00" cy="58.00" r="6.00" stroke="none" stroke-width="0.0" fill="#000000"/>
      <circle cx="216.00" cy="58.00" r="4.00" stroke="none" stroke-width="0.0" fill="#808080"/>
      <circle cx="216.00" cy="58.00" r="3.00" stroke="none" stroke-width="0.0" fill="#000000"/>
    </g>
    <g>
      <circle cx="228.00" cy="74.00" r="6.00" stroke="none" stroke-width="0.0" fill="#000000"/>
      <circle cx="228.00" cy="74.00" r="4.00" stroke="none" stroke-width="0.0" fill="#808080"/>
      <circle cx="228.00" cy="74.00" r="3.00" stroke="none" stroke-width="0.0" fill="#000000"/>
    </g>
    <g>
      <circle cx="228.00" cy="70.00" r="6.00" stroke="none" stroke-width="0.0" fill="#000000"/>
      <circle cx="228.00" cy="70.00" r="4.00" stroke="none" stroke-width="0.0" fill="#808080"/>
      <circle cx="228.00" cy="70.00" r="3.00" stroke="none" stroke-width="0.0" fill="#000000"/>
    </g>
    <g>
      <circle cx="228.00" cy="66.00" r="6.00" stroke="none" stroke-width="0.0" fill="#000000"/>
      <circle cx="228.00" cy="66.00" r="4.00" stroke="none" stroke-width="0.0" fill="#808080"/>
      <circle cx="228.00" cy="66.00" r="3.00" stroke="none" stroke-width="0.0" fill="#000000"/>
    </g>
    <g>
      <circle cx="228.00" cy="62.00" r="6.00" stroke="none" stroke-width="0.0" fill="#000000"/>
      <circle cx="228.00" cy="62.00" r="4.00" stroke="none" stroke-width="0.0" fill="#808080"/>
      <circle cx="228.00" cy="62.00" r="3.00" stroke="none" stroke-width="0.0" fill="#000000"/>
    </g>
    <g>
      <circle cx="228.00" cy="58.00" r="6.00" stroke="none" stroke-width="0.0" fill="#000000"/>
      <circle cx="228.00" cy="58.00" r="4.00" stroke="none" stroke-width="0.0" fill="#808080"/>
      <circle cx="228.00" cy="58.00" r="3.00" stroke="none" stroke-width="0.0" fill="#000000"/>
    </g>
    <circle cx="331.00" cy="73.00" r="20.00" stroke="#000000" stroke-width="1.4" fill="#ffffff"/>
    <circle cx="331.00" cy="73.00" r="15.00" stroke="#000000" stroke-width="1.4" fill="#ffffff"/>
    <path d="M 430.99 73.30 L 486.01 71.70 M 481.16 76.84 L 486.01 71.70 L 480.87 66.85" stroke="#000000" stroke-width="1.4" fill="none"/>
    <g>
      <text x="458.79" y="87.00" style="font-size:14px;font-style:normal;font-weight:normal;text-align:center;text-anchor:middle;fill:#ffffff;fill-opacity:1;stroke:none;stroke-width:1px;stroke-linecap:butt;stroke-linejoin:miter;stroke-opacity:1;font-family:Bitstream Vera Sans">1</text>
    </g>
    <g>
      <text x="458.79" y="87.00" style="font-size:14px;font-style:normal;font-weight:normal;text-align:center;text-anchor:middle;fill:#000000;fill-opacity:1;stroke:none;stroke-width:1px;stroke-linecap:butt;stroke-linejoin:miter;stroke-opacity:1;font-family:Bitstream Vera Sans">1</text>
    </g>
    <circle cx="407.00" cy="74.00" r="20.00" stroke="#000000" stroke-width="1.4" fill="#ffffff"/>
    <g>
      <circle cx="395.00" cy="72.00" r="6.00" stroke="none" stroke-width="0.0" fill="#000000"/>
      <circle cx="395.00" cy="72.00" r="4.00" stroke="none" stroke-width="0.0" fill="#808080"/>
      <circle cx="395.00" cy="72.00" r="3.00" stroke="none" stroke-width="0.0" fill="#000000"/>
    </g>
    <g>
      <circle cx="395.00" cy="68.00" r="6.00" stroke="none" stroke-width="0.0" fill="#000000"/>
      <circle cx="395.00" cy="68.00" r="4.00" stroke="none" stroke-width="0.0" fill="#808080"/>
      <circle cx="395.00" cy="68.00" r="3.00" stroke="none" stroke-width="0.0" fill="#000000"/>
    </g>
    <g>
      <circle cx="395.00" cy="64.00" r="6.00" stroke="none" stroke-width="0.0" fill="#000000"/>
      <circle cx="395.00" cy="64.00" r="4.00" stroke="none" stroke-width="0.0" fill="#808080"/>
      <circle cx="395.00" cy="64.00" r="3.00" stroke="none" stroke-width="0.0" fill="#000000"/>
    </g>
    <g>
      <circle cx="395.00" cy="60.00" r="6.00" stroke="none" stroke-width="0.0" fill="#000000"/>
      <circle cx="395.00" cy="60.00" r="4.00" stroke="none" stroke-width="0.0" fill="#808080"/>
      <circle cx="395.00" cy="60.00" r="3.00" stroke="none" stroke-width="0.0" fill="#000000"/>
    </g>
    <g>
      <circle cx="395.00" cy="56.00" r="6.00" stroke="none" stroke-width="0.0" fill="#000000"/>
      <circle cx="395.00" cy="56.00" r="4.00" stroke="none" stroke-width="0.0" fill="#808080"/>
      <circle cx="395.00" cy="56.00" r="3.00" stroke="none" stroke-width="0.0" fill="#000000"/>
    </g>
    <g>
      <circle cx="407.00" cy="72.00" r="6.00" stroke="none" stroke-width="0.0" fill="#000000"/>
      <circle cx="407.00" cy="72.00" r="4.00" stroke="none" stroke-width="0.0" fill="#808080"/>
      <circle cx="407.00" cy="72.00" r="3.00" stroke="none" stroke-width="0.0" fill="#000000"/>
    </g>
    <g>
      <circle cx="407.00" cy="68.00" r="6.00" stroke="none" stroke-width="0.0" fill="#000000"/>
      <circle cx="407.00" cy="68.00" r="4.00" stroke="none" stroke-width="0.0" fill="#808080"/>
      <circle cx="407.00" cy="68.00" r="3.00" stroke="none" stroke-width="0.0" fill="#000000"/>
    </g>
    <g>
      <circle cx="407.00" cy="64.00" r="6.00" stroke="none" stroke-width="0.0" fill="#000000"/>
      <circle cx="407.00" cy="64.00" r="4.00" stroke="none" stroke-width="0.0" fill="#808080"/>
      <circle cx="407.00" cy="64.00" r="3.00" stroke="none" stroke-width="0.0" fill="#000000"/>
    </g>
    <g>
      <circle cx="407.00" cy="60.00" r="6.00" stroke="none" stroke-width="0.0" fill="#000000"/>
      <circle cx="407.00" cy="60.00" r="4.00" stroke="none" stroke-width="0.0" fill="#808080"/>
      <circle cx="407.00" cy="60.00" r="3.00" stroke="none" stroke-width="0.0" fill="#000000"/>
    </g>
    <g>
      <circle cx="407.00" cy="56.00" r="6.00" stroke="none" stroke-width="0.0" fill="#000000"/>
      <circle cx="407.00" cy="56.00" r="4.00" stroke="none" stroke-width="0.0" fill="#808080"/>
      <circle cx="407.00" cy="56.00" r="3.00" stroke="none" stroke-width="0.0" fill="#000000"/>
    </g>
    <circle cx="510.00" cy="71.00" r="20.00" stroke="#000000" stroke-width="1.4" fill="#ffffff"/>
    <circle cx="510.00" cy="71.00" r="15.00" stroke="#000000" stroke-width="1.4" fill="#ffffff"/>
    <path d="M 80.99 242.30 L 136.01 240.70 M 131.16 245.84 L 136.01 240.70 L 130.87 235.85" stroke="#000000" stroke-width="1.4" fill="none"/>
    <g>
      <text x="108.79" y="256.00" style="font-size:14px;font-style:normal;font-weight:normal;text-align:center;text-anchor:middle;fill:#ffffff;fill-opacity:1;stroke:none;stroke-width:1px;stroke-linecap:butt;stroke-linejoin:miter;stroke-opacity:1;font-family:Bitstream Vera Sans">1</text>
    </g>
    <g>
      <text x="108.79" y="256.00" style="font-size:14px;font-style:normal;font-weight:normal;text-align:center;text-anchor:middle;fill:#000000;fill-opacity:1;stroke:none;stroke-width:1px;stroke-linecap:butt;stroke-linejoin:miter;stroke-opacity:1;font-family:Bitstream Vera Sans">1</text>
    </g>
    <path d="M 254.99 243.30 L 310.01 241.70 M 305.16 246.84 L 310.01 241.70 L 304.87 236.85" stroke="#000000" stroke-width="1.4" fill="none"/>
    <g>
      <text x="282.79" y="257.00" style="font-size:14px;font-style:normal;font-weight:normal;text-align:center;text-anchor:middle;fill:#ffffff;fill-opacity:1;stroke:none;stroke-width:1px;stroke-linecap:butt;stroke-linejoin:miter;stroke-opacity:1;font-family:Bitstream Vera Sans">1</text>
    </g>
    <g>
      <text x="282.79" y="257.00" style="font-size:14px;font-style:normal;font-weight:normal;text-align:center;text-anchor:middle;fill:#000000;fill-opacity:1;stroke:none;stroke-width:1px;stroke-linecap:butt;stroke-linejoin:miter;stroke-opacity:1;font-family:Bitstream Vera Sans">1</text>
    </g>
    <path d="M 318.64 222.56 L 317.36 221.03 M 312.87 215.65 L 311.59 214.11 M 307.11 208.73 L 305.83 207.20 M 301.35 201.82 L 300.07 200.28 M 295.59 194.91 L 294.31 193.37 M 294.00 193.00 M 292.79 199.41 L 292.42 201.37 M 291.13 208.25 L 290.76 210.22 M 289.46 217.09 L 289.09 219.06 M 287.79 225.94 L 287.42 227.90 M 286.13 234.78 L 285.76 236.75 M 284.80 241.85 M 280.81 236.01 L 284.80 241.85 L 290.64 237.86" stroke="#000000" stroke-width="1.4" fill="none"/>
    <g>
      <text x="283.13" y="201.16" style="font-size:14px;font-style:normal;font-weight:normal;text-align:right;text-anchor:end;fill:#ffffff;fill-opacity:1;stroke:none;stroke-width:1px;stroke-linecap:butt;stroke-linejoin:miter;stroke-opacity:1;font-family:Bitstream Vera Sans">+1</text>
    </g>
    <g>
      <text x="283.13" y="201.16" style="font-size:14px;font-style:normal;font-weight:normal;text-align:right;text-anchor:end;fill:#000000;fill-opacity:1;stroke:none;stroke-width:1px;stroke-linecap:butt;stroke-linejoin:miter;stroke-opacity:1;font-family:Bitstream Vera Sans">+1</text>
    </g>
    <circle cx="231.00" cy="244.00" r="20.00" stroke="#000000" stroke-width="1.4" fill="#ffffff"/>
    <g>
      <circle cx="219.00" cy="242.00" r="6.00" stroke="none" stroke-width="0.0" fill="#000000"/>
      <circle cx="219.00" cy="242.00" r="4.00" stroke="none" stroke-width="0.0" fill="#808080"/>
      <circle cx="219.00" cy="242.00" r="3.00" stroke="none" stroke-width="0.0" fill="#000000"/>
    </g>
    <g>
      <circle cx="219.00" cy="238.00" r="6.00" stroke="none" stroke-width="0.0" fill="#000000"/>
      <circle cx="219.00" cy="238.00" r="4.00" stroke="none" stroke-width="0.0" fill="#808080"/>
      <circle cx="219.00" cy="238.00" r="3.00" stroke="none" stroke-width="0.0" fill="#000000"/>
    </g>
    <g>
      <circle cx="219.00" cy="234.00" r="6.00" stroke="none" stroke-width="0.0" fill="#000000"/>
      <circle cx="219.00" cy="234.00" r="4.00" stroke="none" stroke-width="0.0" fill="#808080"/>
      <circle cx="219.00" cy="234.00" r="3.00" stroke="none" stroke-width="0.0" fill="#000000"/>
    </g>
    <g>
      <circle cx="219.00" cy="230.00" r="6.00" stroke="none" stroke-width="0.0" fill="#000000"/>
      <circle cx="219.00" cy="230.00" r="4.00" stroke="none" stroke-width="0.0" fill="#808080"/>
      <circle cx="219.00" cy="230.00" r="3.00" stroke="none" stroke-width="0.0" fill="#000000"/>
    </g>
    <g>
      <circle cx="219.00" cy="226.00" r="6.00" stroke="none" stroke-width="0.0" fill="#000000"/>
      <circle cx="219.00" cy="226.00" r="4.00" stroke="none" stroke-width="0.0" fill="#808080"/>
      <circle cx="219.00" cy="226.00" r="3.00" stroke="none" stroke-width="0.0" fill="#000000"/>
    </g>
    <g>
      <circle cx="231.00" cy="242.00" r="6.00" stroke="none" stroke-width="0.0" fill="#000000"/>
      <circle cx="231.00" cy="242.00" r="4.00" stroke="none" stroke-width="0.0" fill="#808080"/>
      <circle cx="231.00" cy="242.00" r="3.00" stroke="none" stroke-width="0.0" fill="#000000"/>
    </g>
    <g>
      <circle cx="231.00" cy="238.00" r="6.00" stroke="none" stroke-width="0.0" fill="#000000"/>
      <circle cx="231.00" cy="238.00" r="4.00" stroke="none" stroke-width="0.0" fill="#808080"/>
      <circle cx="231.00" cy="238.00" r="3.00" stroke="none" stroke-width="0.0" fill="#000000"/>
    </g>
    <g>
      <circle cx="231.00" cy="234.00" r="6.00" stroke="none" stroke-width="0.0" fill="#000000"/>
      <circle cx="231.00" cy="234.00" r="4.00" stroke="none" stroke-width="0.0" fill="#808080"/>
      <circle cx="231.00" cy="234.00" r="3.00" stroke="none" stroke-width="0.0" fill="#000000"/>
    </g>
    <g>
      <circle cx="231.00" cy="230.00" r="6.00" stroke="none" stroke-width="0.0" fill="#000000"/>
      <circle cx="231.00" cy="230.00" r="4.00" stroke="none" stroke-width="0.0" fill="#808080"/>
      <circle cx="231.00" cy="230.00" r="3.00" stroke="none" stroke-width="0.0" fill="#000000"/>
    </g>
    <g>
      <circle cx="231.00" cy="226.00" r="6.00" stroke="none" stroke-width="0.0" fill="#000000"/>
      <circle cx="231.00" cy="226.00" r="4.00" stroke="none" stroke-width="0.0" fill="#808080"/>
      <circle cx="231.00" cy="226.00" r="3.00" stroke="none" stroke-width="0.0" fill="#000000"/>
    </g>
    <circle cx="334.00" cy="241.00" r="20.00" stroke="#000000" stroke-width="1.4" fill="#ffffff"/>
    <circle cx="334.00" cy="241.00" r="15.00" stroke="#000000" stroke-width="1.4" fill="#ffffff"/>
    <path d="M 440.99 242.30 L 496.01 240.70 M 491.16 245.84 L 496.01 240.70 L 490.87 235.85" stroke="#000000" stroke-width="1.4" fill="none"/>
    <g>
      <text x="468.79" y="256.00" style="font-size:14px;font-style:normal;font-weight:normal;text-align:center;text-anchor:middle;fill:#ffffff;fill-opacity:1;stroke:none;stroke-width:1px;stroke-linecap:butt;stroke-linejoin:miter;stroke-opacity:1;font-family:Bitstream Vera Sans">1</text>
    </g>
    <g>
      <text x="468.79" y="256.00" style="font-size:14px;font-style:normal;font-weight:normal;text-align:center;text-anchor:middle;fill:#000000;fill-opacity:1;stroke:none;stroke-width:1px;stroke-linecap:butt;stroke-linejoin:miter;stroke-opacity:1;font-family:Bitstream Vera Sans">1</text>
    </g>
    <circle cx="417.00" cy="243.00" r="20.00" stroke="#000000" stroke-width="1.4" fill="#ffffff"/>
    <g>
      <circle cx="405.00" cy="241.00" r="6.00" stroke="none" stroke-width="0.0" fill="#000000"/>
      <circle cx="405.00" cy="241.00" r="4.00" stroke="none" stroke-width="0.0" fill="#808080"/>
      <circle cx="405.00" cy="241.00" r="3.00" stroke="none" stroke-width="0.0" fill="#000000"/>
    </g>
    <g>
      <circle cx="405.00" cy="237.00" r="6.00" stroke="none" stroke-width="0.0" fill="#000000"/>
      <circle cx="405.00" cy="237.00" r="4.00" stroke="none" stroke-width="0.0" fill="#808080"/>
      <circle cx="405.00" cy="237.00" r="3.00" stroke="none" stroke-width="0.0" fill="#000000"/>
    </g>
    <g>
      <circle cx="405.00" cy="233.00" r="6.00" stroke="none" stroke-width="0.0" fill="#000000"/>
      <circle cx="405.00" cy="233.00" r="4.00" stroke="none" stroke-width="0.0" fill="#808080"/>
      <circle cx="405.00" cy="233.00" r="3.00" stroke="none" stroke-width="0.0" fill="#000000"/>
    </g>
    <g>
      <circle cx="405.00" cy="229.00" r="6.00" stroke="none" stroke-width="0.0" fill="#000000"/>
      <circle cx="405.00" cy="229.00" r="4.00" stroke="none" stroke-width="0.0" fill="#808080"/>
      <circle cx="405.00" cy="229.00" r="3.00" stroke="none" stroke-width="0.0" fill="#000000"/>
    </g>
    <g>
      <circle cx="405.00" cy="225.00" r="6.00" stroke="none" stroke-width="0.0" fill="#000000"/>
      <circle cx="405.00" cy="225.00" r="4.00" stroke="none" stroke-width="0.0" fill="#808080"/>
      <circle cx="405.00" cy="225.00" r="3.00" stroke="none" stroke-width="0.0" fill="#000000"/>
    </g>
    <g>
      <circle cx="417.00" cy="241.00" r="6.00" stroke="none" stroke-width="0.0" fill="#000000"/>
      <circle cx="417.00" cy="241.00" r="4.00" stroke="none" stroke-width="0.0" fill="#808080"/>
      <circle cx="417.00" cy="241.00" r="3.00" stroke="none" stroke-width="0.0" fill="#000000"/>
    </g>
    <g>
      <circle cx="417.00" cy="237.00" r="6.00" stroke="none" stroke-width="0.0" fill="#000000"/>
      <circle cx="417.00" cy="237.00" r="4.00" stroke="none" stroke-width="0.0" fill="#808080"/>
      <circle cx="417.00" cy="237.00" r="3.00" stroke="none" stroke-width="0.0" fill="#000000"/>
    </g>
    <g>
      <circle cx="417.00" cy="233.00" r="6.00" stroke="none" stroke-width="0.0" fill="#000000"/>
      <circle cx="417.00" cy="233.00" r="4.00" stroke="none" stroke-width="0.0" fill="#808080"/>
      <circle cx="417.00" cy="233.00" r="3.00" stroke="none" stroke-width="0.0" fill="#000000"/>
    </g>
    <g>
      <circle cx="417.00" cy="229.00" r="6.00" stroke="none" stroke-width="0.0" fill="#000000"/>
      <circle cx="417.00" cy="229.00" r="4.00" stroke="none" stroke-width="0.0" fill="#808080"/>
      <circle cx="417.00" cy="229.00" r="3.00" stroke="none" stroke-width="0.0" fill="#000000"/>
    </g>
    <g>
      <circle cx="417.00" cy="225.00" r="6.00" stroke="none" stroke-width="0.0" fill="#000000"/>
      <circle cx="417.00" cy="225.00" r="4.00" stroke="none" stroke-width="0.0" fill="#808080"/>
      <circle cx="417.00" cy="225.00" r="3.00" stroke="none" stroke-width="0.0" fill="#000000"/>
    </g>
    <circle cx="520.00" cy="240.00" r="20.00" stroke="#000000" stroke-width="1.4" fill="#ffffff"/>
    <circle cx="520.00" cy="240.00" r="15.00" stroke="#000000" stroke-width="1.4" fill="#ffffff"/>
    <path d="M 315.64 54.56 L 314.36 53.03 M 309.87 47.65 L 308.59 46.11 M 304.11 40.73 L 302.83 39.20 M 298.35 33.82 L 297.07 32.28 M 292.59 26.91 L 291.31 25.37 M 291.00 25.00 M 289.79 31.41 L 289.42 33.37 M 288.13 40.25 L 287.76 42.22 M 286.46 49.09 L 286.09 51.06 M 284.79 57.94 L 284.42 59.90 M 283.13 66.78 L 282.76 68.75 M 281.80 73.85 M 277.81 68.01 L 281.80 73.85 L 287.64 69.86" stroke="#000000" stroke-width="1.4" fill="none"/>
    <g>
      <text x="280.13" y="33.16" style="font-size:14px;font-style:normal;font-weight:normal;text-align:right;text-anchor:end;fill:#ffffff;fill-opacity:1;stroke:none;stroke-width:1px;stroke-linecap:butt;stroke-linejoin:miter;stroke-opacity:1;font-family:Bitstream Vera Sans">+2</text>
    </g>
    <g>
      <text x="280.13" y="33.16" style="font-size:14px;font-style:normal;font-weight:normal;text-align:right;text-anchor:end;fill:#000000;fill-opacity:1;stroke:none;stroke-width:1px;stroke-linecap:butt;stroke-linejoin:miter;stroke-opacity:1;font-family:Bitstream Vera Sans">+2</text>
    </g>
    <path d="M 494.64 52.56 L 493.36 51.03 M 488.87 45.65 L 487.59 44.11 M 483.11 38.73 L 481.83 37.20 M 477.35 31.82 L 476.07 30.28 M 471.59 24.91 L 470.31 23.37 M 470.00 23.00 M 468.79 29.41 L 468.42 31.37 M 467.13 38.25 L 466.76 40.22 M 465.46 47.09 L 465.09 49.06 M 463.79 55.94 L 463.42 57.90 M 462.13 64.78 L 461.76 66.75 M 460.80 71.85 M 456.81 66.01 L 460.80 71.85 L 466.64 67.86" stroke="#000000" stroke-width="1.4" fill="none"/>
    <g>
      <text x="459.13" y="31.16" style="font-size:14px;font-style:normal;font-weight:normal;text-align:right;text-anchor:end;fill:#ffffff;fill-opacity:1;stroke:none;stroke-width:1px;stroke-linecap:butt;stroke-linejoin:miter;stroke-opacity:1;font-family:Bitstream Vera Sans">+2/3</text>
    </g>
    <g>
      <text x="459.13" y="31.16" style="font-size:14px;font-style:normal;font-weight:normal;text-align:right;text-anchor:end;fill:#000000;fill-opacity:1;stroke:none;stroke-width:1px;stroke-linecap:butt;stroke-linejoin:miter;stroke-opacity:1;font-family:Bitstream Vera Sans">+2/3</text>
    </g>
    <circle cx="57.00" cy="243.00" r="20.00" stroke="#000000" stroke-width="1.4" fill="#ffffff"/>
    <g>
      <circle cx="45.00" cy="241.00" r="6.00" stroke="none" stroke-width="0.0" fill="#000000"/>
      <circle cx="45.00" cy="241.00" r="4.00" stroke="none" stroke-width="0.0" fill="#808080"/>
      <circle cx="45.00" cy="241.00" r="3.00" stroke="none" stroke-width="0.0" fill="#000000"/>
    </g>
    <g>
      <circle cx="45.00" cy="237.00" r="6.00" stroke="none" stroke-width="0.0" fill="#000000"/>
      <circle cx="45.00" cy="237.00" r="4.00" stroke="none" stroke-width="0.0" fill="#808080"/>
      <circle cx="45.00" cy="237.00" r="3.00" stroke="none" stroke-width="0.0" fill="#000000"/>
    </g>
    <g>
      <circle cx="45.00" cy="233.00" r="6.00" stroke="none" stroke-width="0.0" fill="#000000"/>
      <circle cx="45.00" cy="233.00" r="4.00" stroke="none" stroke-width="0.0" fill="#808080"/>
      <circle cx="45.00" cy="233.00" r="3.00" stroke="none" stroke-width="0.0" fill="#000000"/>
    </g>
    <g>
      <circle cx="45.00" cy="229.00" r="6.00" stroke="none" stroke-width="0.0" fill="#000000"/>
      <circle cx="45.00" cy="229.00" r="4.00" stroke="none" stroke-width="0.0" fill="#808080"/>
      <circle cx="45.00" cy="229.00" r="3.00" stroke="none" stroke-width="0.0" fill="#000000"/>
    </g>
    <g>
      <circle cx="45.00" cy="225.00" r="6.00" stroke="none" stroke-width="0.0" fill="#000000"/>
      <circle cx="45.00" cy="225.00" r="4.00" stroke="none" stroke-width="0.0" fill="#808080"/>
      <circle cx="45.00" cy="225.00" r="3.00" stroke="none" stroke-width="0.0" fill="#000000"/>
    </g>
    <g>
      <circle cx="57.00" cy="241.00" r="6.00" stroke="none" stroke-width="0.0" fill="#000000"/>
      <circle cx="57.00" cy="241.00" r="4.00" stroke="none" stroke-width="0.0" fill="#808080"/>
      <circle cx="57.00" cy="241.00" r="3.00" stroke="none" stroke-width="0.0" fill="#000000"/>
    </g>
    <g>
      <circle cx="57.00" cy="237.00" r="6.00" stroke="none" stroke-width="0.0" fill="#000000"/>
      <circle cx="57.00" cy="237.00" r="4.00" stroke="none" stroke-width="0.0" fill="#808080"/>
      <circle cx="57.00" cy="237.00" r="3.00" stroke="none" stroke-width="0.0" fill="#000000"/>
    </g>
    <g>
      <circle cx="57.00" cy="233.00" r="6.00" stroke="none" stroke-width="0.0" fill="#000000"/>
      <circle cx="57.00" cy="233.00" r="4.00" stroke="none" stroke-width="0.0" fill="#808080"/>
      <circle cx="57.00" cy="233.00" r="3.00" stroke="none" stroke-width="0.0" fill="#000000"/>
    </g>
    <g>
      <circle cx="57.00" cy="229.00" r="6.00" stroke="none" stroke-width="0.0" fill="#000000"/>
      <circle cx="57.00" cy="229.00" r="4.00" stroke="none" stroke-width="0.0" fill="#808080"/>
      <circle cx="57.00" cy="229.00" r="3.00" stroke="none" stroke-width="0.0" fill="#000000"/>
    </g>
    <g>
      <circle cx="57.00" cy="225.00" r="6.00" stroke="none" stroke-width="0.0" fill="#000000"/>
      <circle cx="57.00" cy="225.00" r="4.00" stroke="none" stroke-width="0.0" fill="#808080"/>
      <circle cx="57.00" cy="225.00" r="3.00" stroke="none" stroke-width="0.0" fill="#000000"/>
    </g>
    <path d="M 56.62 219.00 L 56.58 217.00 M 56.47 210.00 L 56.44 208.00 M 56.33 201.01 L 56.30 199.01 M 56.19 192.62 M 56.80 192.71 L 58.78 193.01 M 65.70 194.05 L 67.68 194.35 M 74.60 195.38 L 76.58 195.68 M 83.50 196.72 L 85.48 197.02 M 92.40 198.06 L 94.38 198.35 M 101.30 199.39 L 103.28 199.69 M 105.36 200.00 M 105.68 204.89 L 105.82 206.88 M 106.28 213.87 L 106.42 215.86 M 106.88 222.85 L 107.01 224.84 M 107.48 231.83 L 107.61 233.82 M 108.08 240.81 L 108.08 240.85 M 102.76 236.19 L 108.08 240.85 L 112.74 235.52" stroke="#000000" stroke-width="1.4" fill="none"/>
    <g>
      <text x="86.49" y="211.78" style="font-size:14px;font-style:normal;font-weight:normal;text-align:center;text-anchor:middle;fill:#ffffff;fill-opacity:1;stroke:none;stroke-width:1px;stroke-linecap:butt;stroke-linejoin:miter;stroke-opacity:1;font-family:Bitstream Vera Sans">-1</text>
    </g>
    <g>
      <text x="86.49" y="211.78" style="font-size:14px;font-style:normal;font-weight:normal;text-align:center;text-anchor:middle;fill:#000000;fill-opacity:1;stroke:none;stroke-width:1px;stroke-linecap:butt;stroke-linejoin:miter;stroke-opacity:1;font-family:Bitstream Vera Sans">-1</text>
    </g>
    <path d="M 229.52 220.05 L 229.40 218.05 M 228.97 211.06 L 228.84 209.07 M 228.41 202.08 L 228.29 200.08 M 227.86 193.10 L 227.77 191.62 L 228.27 191.75 M 235.03 193.57 L 236.96 194.09 M 243.72 195.92 L 245.65 196.44 M 252.41 198.26 L 254.34 198.78 M 258.87 200.00 M 259.83 202.10 L 260.66 203.92 M 263.56 210.29 L 264.39 212.11 M 267.29 218.48 L 268.12 220.30 M 271.02 226.67 L 271.85 228.49 M 274.75 234.86 L 275.58 236.68 M 277.94 241.85 M 271.32 239.37 L 277.94 241.85 L 280.42 235.22" stroke="#000000" stroke-width="1.4" fill="none"/>
    <g>
      <text x="249.17" y="212.24" style="font-size:14px;font-style:normal;font-weight:normal;text-align:center;text-anchor:middle;fill:#ffffff;fill-opacity:1;stroke:none;stroke-width:1px;stroke-linecap:butt;stroke-linejoin:miter;stroke-opacity:1;font-family:Bitstream Vera Sans">-1</text>
    </g>
    <g>
      <text x="249.17" y="212.24" style="font-size:14px;font-style:normal;font-weight:normal;text-align:center;text-anchor:middle;fill:#000000;fill-opacity:1;stroke:none;stroke-width:1px;stroke-linecap:butt;stroke-linejoin:miter;stroke-opacity:1;font-family:Bitstream Vera Sans">-1</text>
    </g>
    <path d="M 504.64 221.56 L 503.36 220.03 M 498.87 214.65 L 497.59 213.11 M 493.11 207.73 L 491.83 206.20 M 487.35 200.82 L 486.07 199.28 M 481.59 193.91 L 480.31 192.37 M 480.00 192.00 M 478.79 198.41 L 478.42 200.37 M 477.13 207.25 L 476.76 209.22 M 475.46 216.09 L 475.09 218.06 M 473.79 224.94 L 473.42 226.90 M 472.13 233.78 L 471.76 235.75 M 470.80 240.85 M 466.81 235.01 L 470.80 240.85 L 476.64 236.86" stroke="#000000" stroke-width="1.4" fill="none"/>
    <g>
      <text x="469.13" y="200.16" style="font-size:14px;font-style:normal;font-weight:normal;text-align:right;text-anchor:end;fill:#ffffff;fill-opacity:1;stroke:none;stroke-width:1px;stroke-linecap:butt;stroke-linejoin:miter;stroke-opacity:1;font-family:Bitstream Vera Sans">+1</text>
    </g>
    <g>
      <text x="469.13" y="200.16" style="font-size:14px;font-style:normal;font-weight:normal;text-align:right;text-anchor:end;fill:#000000;fill-opacity:1;stroke:none;stroke-width:1px;stroke-linecap:butt;stroke-linejoin:miter;stroke-opacity:1;font-family:Bitstream Vera Sans">+1</text>
    </g>
    <circle cx="160.00" cy="240.00" r="20.00" stroke="#000000" stroke-width="1.4" fill="#ffffff"/>
    <circle cx="160.00" cy="240.00" r="15.00" stroke="#000000" stroke-width="1.4" fill="#ffffff"/>
    <path d="M 422.87 219.73 L 423.41 217.80 M 425.31 211.07 L 425.86 209.14 M 427.76 202.41 L 428.30 200.48 M 428.44 200.00 M 432.45 205.12 L 433.68 206.69 M 438.00 212.20 L 439.23 213.77 M 443.55 219.28 L 444.78 220.86 M 449.10 226.37 L 450.33 227.94 M 454.65 233.45 L 455.89 235.03 M 460.20 240.54 L 461.44 242.11 M 463.79 245.12 M 456.77 244.26 L 463.79 245.12 L 464.64 238.10" stroke="#000000" stroke-width="1.4" fill="none"/>
    <g>
      <text x="431.92" y="225.16" style="font-size:14px;font-style:normal;font-weight:normal;text-align:right;text-anchor:end;fill:#ffffff;fill-opacity:1;stroke:none;stroke-width:1px;stroke-linecap:butt;stroke-linejoin:miter;stroke-opacity:1;font-family:Bitstream Vera Sans">+1</text>
    </g>
    <g>
      <text x="431.92" y="225.16" style="font-size:14px;font-style:normal;font-weight:normal;text-align:right;text-anchor:end;fill:#000000;fill-opacity:1;stroke:none;stroke-width:1px;stroke-linecap:butt;stroke-linejoin:miter;stroke-opacity:1;font-family:Bitstream Vera Sans">+1</text>
    </g>
  </g>
</svg>