<svg width="12.00cm" height="11.20cm" viewBox="0 0 600 564" xmlns="http://www.w3.org/2000/svg" version="1.1">
  undefined
  undefined
  undefined
  undefined
  undefined
  undefined
  undefined
  undefined
  undefined
  undefined
  undefined
  undefined
  undefined
  undefined
  undefined
  undefined
  undefined
  undefined
  undefined
  undefined
  undefined
  undefined
  undefined
  undefined
  undefined
  undefined
  undefined
  undefined
  undefined
  undefined
  undefined
  undefined
  undefined
  undefined
  undefined
  undefined
  undefined
  undefined
  undefined
  undefined
  undefined
  undefined
  undefined
  undefined
  undefined
  undefined
  undefined
  undefined
  undefined
  undefined
  undefined
  undefined
  <g stroke-linecap="round" stroke-linejoin="round">
    <path d="M 88.45 79.16 L 103.35 94.06 L 118.26 79.16 L 103.35 64.25 L 88.45 79.16" stroke="#000000" stroke-width="1.4" fill="#ffffff"/>
    <path d="M 94.41 79.16 L 103.35 88.10 L 112.29 79.16 L 103.35 70.21 L 94.41 79.16" stroke="#000000" stroke-width="1.4" fill="#ffffff"/>
    <path d="M 47.08 79.16 L 83.35 79.16 M 78.35 84.16 L 83.35 79.16 L 78.35 74.16" stroke="#000000" stroke-width="1.4" fill="none"/>
    <path d="M 123.35 79.36 L 176.00 79.91 M 170.95 84.86 L 176.00 79.91 L 171.05 74.86" stroke="#000000" stroke-width="1.4" fill="none"/>
    <path d="M 200.00 56.16 L 200.00 54.16 M 200.00 47.16 L 200.00 45.16 M 200.00 39.02 M 199.14 39.02 L 197.14 39.01 M 190.14 38.97 L 188.14 38.95 M 181.14 38.92 L 179.14 38.90 M 172.14 38.87 L 170.14 38.85 M 163.14 38.82 L 161.14 38.80 M 154.14 38.77 L 152.14 38.75 M 145.14 38.72 L 143.14 38.70 M 136.14 38.66 L 134.14 38.65 M 127.14 38.61 L 125.14 38.60 M 118.14 38.56 L 116.14 38.55 M 109.14 38.51 L 107.14 38.50 M 100.14 38.46 L 98.14 38.45 M 91.14 38.41 L 89.14 38.40 M 82.14 38.36 L 80.14 38.35 M 73.14 38.31 L 71.14 38.30 M 64.14 38.26 L 62.14 38.25 M 55.14 38.21 L 53.14 38.20 M 46.14 38.16 L 44.14 38.15 M 37.14 38.11 L 35.14 38.10 M 28.14 38.06 L 26.14 38.05 M 20.07 38.02 M 20.14 38.95 L 20.29 40.94 M 20.80 47.92 L 20.94 49.92 M 21.33 55.22 M 15.98 50.60 L 21.33 55.22 L 25.95 49.87" stroke="#000000" stroke-width="1.4" fill="none"/>
    <g>
      <text x="110.04" y="33.02" style="font-size:14px;font-style:normal;font-weight:normal;text-align:center;text-anchor:middle;fill:#ffffff;fill-opacity:1;stroke:none;stroke-width:1px;stroke-linecap:butt;stroke-linejoin:miter;stroke-opacity:1;font-family:Bitstream Vera Sans">*</text>
    </g>
    <g>
      <text x="110.04" y="33.02" style="font-size:14px;font-style:normal;font-weight:normal;text-align:center;text-anchor:middle;fill:#000000;fill-opacity:1;stroke:none;stroke-width:1px;stroke-linecap:butt;stroke-linejoin:miter;stroke-opacity:1;font-family:Bitstream Vera Sans">*</text>
    </g>
    <circle cx="23.08" cy="79.16" r="20.00" stroke="#000000" stroke-width="1.4" fill="#ffffff"/>
    <g>
      <circle cx="11.05" cy="77.15" r="6.00" stroke="none" stroke-width="0.0" fill="#000000"/>
      <circle cx="11.05" cy="77.15" r="4.00" stroke="none" stroke-width="0.0" fill="#808080"/>
      <circle cx="11.05" cy="77.15" r="3.00" stroke="none" stroke-width="0.0" fill="#000000"/>
    </g>
    <g>
      <circle cx="11.05" cy="73.15" r="6.00" stroke="none" stroke-width="0.0" fill="#000000"/>
      <circle cx="11.05" cy="73.15" r="4.00" stroke="none" stroke-width="0.0" fill="#808080"/>
      <circle cx="11.05" cy="73.15" r="3.00" stroke="none" stroke-width="0.0" fill="#000000"/>
    </g>
    <g>
      <circle cx="11.05" cy="69.15" r="6.00" stroke="none" stroke-width="0.0" fill="#000000"/>
      <circle cx="11.05" cy="69.15" r="4.00" stroke="none" stroke-width="0.0" fill="#808080"/>
      <circle cx="11.05" cy="69.15" r="3.00" stroke="none" stroke-width="0.0" fill="#000000"/>
    </g>
    <g>
      <circle cx="11.05" cy="65.15" r="6.00" stroke="none" stroke-width="0.0" fill="#000000"/>
      <circle cx="11.05" cy="65.15" r="4.00" stroke="none" stroke-width="0.0" fill="#808080"/>
      <circle cx="11.05" cy="65.15" r="3.00" stroke="none" stroke-width="0.0" fill="#000000"/>
    </g>
    <g>
      <circle cx="11.05" cy="61.15" r="6.00" stroke="none" stroke-width="0.0" fill="#000000"/>
      <circle cx="11.05" cy="61.15" r="4.00" stroke="none" stroke-width="0.0" fill="#808080"/>
      <circle cx="11.05" cy="61.15" r="3.00" stroke="none" stroke-width="0.0" fill="#000000"/>
    </g>
    <circle cx="200.00" cy="80.16" r="20.00" stroke="#000000" stroke-width="1.4" fill="#ffffff"/>
    <path d="M 385.10 143.46 L 400.00 158.36 L 414.90 143.46 L 400.00 128.55 L 385.10 143.46" stroke="#000000" stroke-width="1.4" fill="#ffffff"/>
    <path d="M 391.06 143.46 L 400.00 152.40 L 408.94 143.46 L 400.00 134.51 L 391.06 143.46" stroke="#000000" stroke-width="1.4" fill="#ffffff"/>
    <circle cx="520.00" cy="88.27" r="20.00" stroke="#000000" stroke-width="1.4" fill="#ffffff"/>
    <path d="M 385.10 21.05 L 400.00 35.95 L 414.90 21.05 L 400.00 6.14 L 385.10 21.05" stroke="#000000" stroke-width="1.4" fill="#ffffff"/>
    <path d="M 417.45 30.82 L 499.06 76.54 M 492.26 78.46 L 499.06 76.54 L 497.14 69.74" stroke="#000000" stroke-width="1.4" fill="none"/>
    <path d="M 400.00 123.46 L 400.00 121.46 M 400.00 114.46 L 400.00 112.46 M 400.00 105.46 L 400.00 103.46 M 400.00 96.46 L 400.00 94.46 M 400.00 87.46 L 400.00 85.46 M 400.00 78.46 L 400.00 76.46 M 400.00 69.46 L 400.00 67.46 M 400.00 60.46 L 400.00 58.46 M 400.00 51.46 L 400.00 49.46 M 400.00 42.46 L 400.00 41.05 M 405.00 46.05 L 400.00 41.05 L 395.00 46.05" stroke="#000000" stroke-width="1.4" fill="none"/>
    <g>
      <text x="410.00" y="86.75" style="font-size:14px;font-style:normal;font-weight:normal;text-align:left;text-anchor:start;fill:#ffffff;fill-opacity:1;stroke:none;stroke-width:1px;stroke-linecap:butt;stroke-linejoin:miter;stroke-opacity:1;font-family:Bitstream Vera Sans">*</text>
    </g>
    <g>
      <text x="410.00" y="86.75" style="font-size:14px;font-style:normal;font-weight:normal;text-align:left;text-anchor:start;fill:#000000;fill-opacity:1;stroke:none;stroke-width:1px;stroke-linecap:butt;stroke-linejoin:miter;stroke-opacity:1;font-family:Bitstream Vera Sans">*</text>
    </g>
    <circle cx="320.00" cy="80.00" r="20.00" stroke="#000000" stroke-width="1.4" fill="#ffffff"/>
    <g>
      <circle cx="308.00" cy="78.00" r="6.00" stroke="none" stroke-width="0.0" fill="#000000"/>
      <circle cx="308.00" cy="78.00" r="4.00" stroke="none" stroke-width="0.0" fill="#808080"/>
      <circle cx="308.00" cy="78.00" r="3.00" stroke="none" stroke-width="0.0" fill="#000000"/>
    </g>
    <g>
      <circle cx="308.00" cy="74.00" r="6.00" stroke="none" stroke-width="0.0" fill="#000000"/>
      <circle cx="308.00" cy="74.00" r="4.00" stroke="none" stroke-width="0.0" fill="#808080"/>
      <circle cx="308.00" cy="74.00" r="3.00" stroke="none" stroke-width="0.0" fill="#000000"/>
    </g>
    <g>
      <circle cx="308.00" cy="70.00" r="6.00" stroke="none" stroke-width="0.0" fill="#000000"/>
      <circle cx="308.00" cy="70.00" r="4.00" stroke="none" stroke-width="0.0" fill="#808080"/>
      <circle cx="308.00" cy="70.00" r="3.00" stroke="none" stroke-width="0.0" fill="#000000"/>
    </g>
    <g>
      <circle cx="308.00" cy="66.00" r="6.00" stroke="none" stroke-width="0.0" fill="#000000"/>
      <circle cx="308.00" cy="66.00" r="4.00" stroke="none" stroke-width="0.0" fill="#808080"/>
      <circle cx="308.00" cy="66.00" r="3.00" stroke="none" stroke-width="0.0" fill="#000000"/>
    </g>
    <g>
      <circle cx="308.00" cy="62.00" r="6.00" stroke="none" stroke-width="0.0" fill="#000000"/>
      <circle cx="308.00" cy="62.00" r="4.00" stroke="none" stroke-width="0.0" fill="#808080"/>
      <circle cx="308.00" cy="62.00" r="3.00" stroke="none" stroke-width="0.0" fill="#000000"/>
    </g>
    <path d="M 339.32 65.76 L 383.90 32.91 M 382.84 39.90 L 383.90 32.91 L 376.91 31.85" stroke="#000000" stroke-width="1.4" fill="none"/>
    <path d="M 338.80 94.91 L 384.33 131.03 M 377.31 131.84 L 384.33 131.03 L 383.52 124.00" stroke="#000000" stroke-width="1.4" fill="none"/>
    <path d="M 418.17 135.10 L 498.20 98.30 M 495.74 104.93 L 498.20 98.30 L 491.56 95.85" stroke="#000000" stroke-width="1.4" fill="none"/>
    <circle cx="231.00" cy="229.68" r="20.00" stroke="#000000" stroke-width="1.4" fill="#ffffff"/>
    <path d="M 116.44 282.86 L 131.34 297.77 L 146.25 282.86 L 131.34 267.96 L 116.44 282.86" stroke="#000000" stroke-width="1.4" fill="#ffffff"/>
    <path d="M 122.40 282.86 L 131.34 291.80 L 140.28 282.86 L 131.34 273.92 L 122.40 282.86" stroke="#000000" stroke-width="1.4" fill="#ffffff"/>
    <path d="M 65.24 223.73 L 119.54 188.82 M 118.03 195.73 L 119.54 188.82 L 112.63 187.32" stroke="#000000" stroke-width="1.4" fill="none"/>
    <path d="M 153.91 187.59 L 209.94 218.18 M 203.15 220.17 L 209.94 218.18 L 207.94 211.40" stroke="#000000" stroke-width="1.4" fill="none"/>
    <path d="M 148.99 273.45 L 209.83 240.98 M 207.77 247.75 L 209.83 240.98 L 203.06 238.93" stroke="#000000" stroke-width="1.4" fill="none"/>
    <path d="M 66.22 248.03 L 113.71 273.43 M 106.94 275.48 L 113.71 273.43 L 111.66 266.66" stroke="#000000" stroke-width="1.4" fill="none"/>
    <path d="M 231.00 205.68 L 231.00 203.68 M 231.00 196.68 L 231.00 194.68 M 231.00 187.68 L 231.00 185.68 M 231.00 178.68 L 231.00 178.00 L 229.68 178.00 M 222.68 178.00 L 220.68 178.00 M 213.68 178.00 L 211.68 178.00 M 204.68 178.00 L 202.68 178.00 M 195.68 178.00 L 193.68 178.00 M 186.68 178.00 L 184.68 178.00 M 177.68 178.00 L 175.68 178.00 M 168.68 178.00 L 166.68 178.00 M 159.68 178.00 L 157.68 178.00 M 156.36 178.00 M 161.36 173.00 L 156.36 178.00 L 161.36 183.00" stroke="#000000" stroke-width="1.4" fill="none"/>
    <g>
      <text x="207.52" y="172.50" style="font-size:14px;font-style:normal;font-weight:normal;text-align:center;text-anchor:middle;fill:#ffffff;fill-opacity:1;stroke:none;stroke-width:1px;stroke-linecap:butt;stroke-linejoin:miter;stroke-opacity:1;font-family:Bitstream Vera Sans">&gt;1</text>
    </g>
    <g>
      <text x="207.52" y="172.50" style="font-size:14px;font-style:normal;font-weight:normal;text-align:center;text-anchor:middle;fill:#000000;fill-opacity:1;stroke:none;stroke-width:1px;stroke-linecap:butt;stroke-linejoin:miter;stroke-opacity:1;font-family:Bitstream Vera Sans">&gt;1</text>
    </g>
    <circle cx="45.05" cy="236.71" r="20.00" stroke="#000000" stroke-width="1.4" fill="#ffffff"/>
    <g>
      <circle cx="33.05" cy="234.70" r="6.00" stroke="none" stroke-width="0.0" fill="#000000"/>
      <circle cx="33.05" cy="234.70" r="4.00" stroke="none" stroke-width="0.0" fill="#808080"/>
      <circle cx="33.05" cy="234.70" r="3.00" stroke="none" stroke-width="0.0" fill="#000000"/>
    </g>
    <g>
      <circle cx="33.05" cy="230.70" r="6.00" stroke="none" stroke-width="0.0" fill="#000000"/>
      <circle cx="33.05" cy="230.70" r="4.00" stroke="none" stroke-width="0.0" fill="#808080"/>
      <circle cx="33.05" cy="230.70" r="3.00" stroke="none" stroke-width="0.0" fill="#000000"/>
    </g>
    <g>
      <circle cx="33.05" cy="226.70" r="6.00" stroke="none" stroke-width="0.0" fill="#000000"/>
      <circle cx="33.05" cy="226.70" r="4.00" stroke="none" stroke-width="0.0" fill="#808080"/>
      <circle cx="33.05" cy="226.70" r="3.00" stroke="none" stroke-width="0.0" fill="#000000"/>
    </g>
    <g>
      <circle cx="33.05" cy="222.70" r="6.00" stroke="none" stroke-width="0.0" fill="#000000"/>
      <circle cx="33.05" cy="222.70" r="4.00" stroke="none" stroke-width="0.0" fill="#808080"/>
      <circle cx="33.05" cy="222.70" r="3.00" stroke="none" stroke-width="0.0" fill="#000000"/>
    </g>
    <g>
      <circle cx="33.05" cy="218.70" r="6.00" stroke="none" stroke-width="0.0" fill="#000000"/>
      <circle cx="33.05" cy="218.70" r="4.00" stroke="none" stroke-width="0.0" fill="#808080"/>
      <circle cx="33.05" cy="218.70" r="3.00" stroke="none" stroke-width="0.0" fill="#000000"/>
    </g>
    <path d="M 393.10 325.00 L 408.00 339.90 L 422.90 325.00 L 408.00 310.10 L 393.10 325.00" stroke="#000000" stroke-width="1.4" fill="#ffffff"/>
    <path d="M 399.06 325.00 L 408.00 333.94 L 416.94 325.00 L 408.00 316.06 L 399.06 325.00" stroke="#000000" stroke-width="1.4" fill="#ffffff"/>
    <path d="M 342.14 265.94 L 396.22 230.88 M 394.74 237.80 L 396.22 230.88 L 389.30 229.41" stroke="#000000" stroke-width="1.4" fill="none"/>
    <path d="M 430.54 229.60 L 486.95 260.48 M 480.16 262.46 L 486.95 260.48 L 484.96 253.69" stroke="#000000" stroke-width="1.4" fill="none"/>
    <path d="M 425.67 315.63 L 486.79 283.24 M 484.72 290.00 L 486.79 283.24 L 480.03 281.16" stroke="#000000" stroke-width="1.4" fill="none"/>
    <path d="M 343.16 290.32 L 390.36 315.57 M 383.60 317.62 L 390.36 315.57 L 388.31 308.80" stroke="#000000" stroke-width="1.4" fill="none"/>
    <circle cx="322.00" cy="279.00" r="20.00" stroke="#000000" stroke-width="1.4" fill="#ffffff"/>
    <g>
      <circle cx="310.00" cy="277.00" r="6.00" stroke="none" stroke-width="0.0" fill="#000000"/>
      <circle cx="310.00" cy="277.00" r="4.00" stroke="none" stroke-width="0.0" fill="#808080"/>
      <circle cx="310.00" cy="277.00" r="3.00" stroke="none" stroke-width="0.0" fill="#000000"/>
    </g>
    <g>
      <circle cx="310.00" cy="273.00" r="6.00" stroke="none" stroke-width="0.0" fill="#000000"/>
      <circle cx="310.00" cy="273.00" r="4.00" stroke="none" stroke-width="0.0" fill="#808080"/>
      <circle cx="310.00" cy="273.00" r="3.00" stroke="none" stroke-width="0.0" fill="#000000"/>
    </g>
    <g>
      <circle cx="310.00" cy="269.00" r="6.00" stroke="none" stroke-width="0.0" fill="#000000"/>
      <circle cx="310.00" cy="269.00" r="4.00" stroke="none" stroke-width="0.0" fill="#808080"/>
      <circle cx="310.00" cy="269.00" r="3.00" stroke="none" stroke-width="0.0" fill="#000000"/>
    </g>
    <g>
      <circle cx="310.00" cy="265.00" r="6.00" stroke="none" stroke-width="0.0" fill="#000000"/>
      <circle cx="310.00" cy="265.00" r="4.00" stroke="none" stroke-width="0.0" fill="#808080"/>
      <circle cx="310.00" cy="265.00" r="3.00" stroke="none" stroke-width="0.0" fill="#000000"/>
    </g>
    <g>
      <circle cx="310.00" cy="261.00" r="6.00" stroke="none" stroke-width="0.0" fill="#000000"/>
      <circle cx="310.00" cy="261.00" r="4.00" stroke="none" stroke-width="0.0" fill="#808080"/>
      <circle cx="310.00" cy="261.00" r="3.00" stroke="none" stroke-width="0.0" fill="#000000"/>
    </g>
    <circle cx="508.00" cy="272.00" r="20.00" stroke="#000000" stroke-width="1.4" fill="#ffffff"/>
    <path d="M 320.78 255.03 L 320.73 253.03 M 320.57 246.03 L 320.52 244.03 M 320.36 237.04 L 320.31 235.04 M 320.15 228.04 L 320.10 226.04 M 320.00 221.72 M 322.68 221.67 L 324.68 221.63 M 331.68 221.50 L 333.68 221.47 M 340.67 221.34 L 342.67 221.30 M 349.67 221.17 L 351.67 221.13 M 358.67 221.00 L 360.67 220.97 M 367.67 220.84 L 369.67 220.80 M 376.67 220.67 L 378.67 220.63 M 385.67 220.51 L 387.67 220.47 M 393.00 220.37 M 388.10 225.46 L 393.00 220.37 L 387.91 215.46" stroke="#000000" stroke-width="1.4" fill="none"/>
    <g>
      <text x="340.03" y="235.85" style="font-size:14px;font-style:normal;font-weight:normal;text-align:center;text-anchor:middle;fill:#ffffff;fill-opacity:1;stroke:none;stroke-width:1px;stroke-linecap:butt;stroke-linejoin:miter;stroke-opacity:1;font-family:Bitstream Vera Sans">==3</text>
    </g>
    <g>
      <text x="340.03" y="235.85" style="font-size:14px;font-style:normal;font-weight:normal;text-align:center;text-anchor:middle;fill:#000000;fill-opacity:1;stroke:none;stroke-width:1px;stroke-linecap:butt;stroke-linejoin:miter;stroke-opacity:1;font-family:Bitstream Vera Sans">==3</text>
    </g>
    <path d="M 398.10 220.00 L 413.00 234.90 L 427.90 220.00 L 413.00 205.10 L 398.10 220.00" stroke="#000000" stroke-width="1.4" fill="#ffffff"/>
    <g>
      <text x="427.40" y="222.80" style="font-size:27px;font-style:normal;font-weight:normal;text-align:center;text-anchor:middle;fill:#000000;fill-opacity:1;stroke:none;stroke-width:1px;stroke-linecap:butt;stroke-linejoin:miter;stroke-opacity:1;font-family:Bitstream Vera Sans">*</text>
    </g>
    <path d="M 121.45 178.00 L 136.36 192.90 L 151.26 178.00 L 136.36 163.10 L 121.45 178.00" stroke="#000000" stroke-width="1.4" fill="#ffffff"/>
    <g>
      <text x="150.76" y="180.80" style="font-size:27px;font-style:normal;font-weight:normal;text-align:center;text-anchor:middle;fill:#000000;fill-opacity:1;stroke:none;stroke-width:1px;stroke-linecap:butt;stroke-linejoin:miter;stroke-opacity:1;font-family:Bitstream Vera Sans">*</text>
    </g>
    <path d="M 138.10 487.00 L 153.00 501.90 L 167.90 487.00 L 153.00 472.10 L 138.10 487.00" stroke="#000000" stroke-width="1.4" fill="#ffffff"/>
    <path d="M 144.06 487.00 L 153.00 495.94 L 161.94 487.00 L 153.00 478.06 L 144.06 487.00" stroke="#000000" stroke-width="1.4" fill="#ffffff"/>
    <path d="M 87.14 427.94 L 141.22 392.88 M 139.74 399.80 L 141.22 392.88 L 134.30 391.41" stroke="#000000" stroke-width="1.4" fill="none"/>
    <path d="M 175.54 391.60 L 231.95 422.48 M 225.16 424.46 L 231.95 422.48 L 229.96 415.69" stroke="#000000" stroke-width="1.4" fill="none"/>
    <path d="M 170.67 477.63 L 231.79 445.24 M 229.72 452.00 L 231.79 445.24 L 225.03 443.16" stroke="#000000" stroke-width="1.4" fill="none"/>
    <path d="M 88.16 452.32 L 135.36 477.57 M 128.60 479.62 L 135.36 477.57 L 133.31 470.80" stroke="#000000" stroke-width="1.4" fill="none"/>
    <circle cx="67.00" cy="441.00" r="20.00" stroke="#000000" stroke-width="1.4" fill="#ffffff"/>
    <g>
      <circle cx="55.00" cy="439.00" r="6.00" stroke="none" stroke-width="0.0" fill="#000000"/>
      <circle cx="55.00" cy="439.00" r="4.00" stroke="none" stroke-width="0.0" fill="#808080"/>
      <circle cx="55.00" cy="439.00" r="3.00" stroke="none" stroke-width="0.0" fill="#000000"/>
    </g>
    <g>
      <circle cx="55.00" cy="435.00" r="6.00" stroke="none" stroke-width="0.0" fill="#000000"/>
      <circle cx="55.00" cy="435.00" r="4.00" stroke="none" stroke-width="0.0" fill="#808080"/>
      <circle cx="55.00" cy="435.00" r="3.00" stroke="none" stroke-width="0.0" fill="#000000"/>
    </g>
    <g>
      <circle cx="55.00" cy="431.00" r="6.00" stroke="none" stroke-width="0.0" fill="#000000"/>
      <circle cx="55.00" cy="431.00" r="4.00" stroke="none" stroke-width="0.0" fill="#808080"/>
      <circle cx="55.00" cy="431.00" r="3.00" stroke="none" stroke-width="0.0" fill="#000000"/>
    </g>
    <g>
      <circle cx="55.00" cy="427.00" r="6.00" stroke="none" stroke-width="0.0" fill="#000000"/>
      <circle cx="55.00" cy="427.00" r="4.00" stroke="none" stroke-width="0.0" fill="#808080"/>
      <circle cx="55.00" cy="427.00" r="3.00" stroke="none" stroke-width="0.0" fill="#000000"/>
    </g>
    <g>
      <circle cx="55.00" cy="423.00" r="6.00" stroke="none" stroke-width="0.0" fill="#000000"/>
      <circle cx="55.00" cy="423.00" r="4.00" stroke="none" stroke-width="0.0" fill="#808080"/>
      <circle cx="55.00" cy="423.00" r="3.00" stroke="none" stroke-width="0.0" fill="#000000"/>
    </g>
    <path d="M 143.10 382.00 L 158.00 396.90 L 172.90 382.00 L 158.00 367.10 L 143.10 382.00" stroke="#000000" stroke-width="1.4" fill="#ffffff"/>
    <g>
      <text x="172.40" y="384.80" style="font-size:27px;font-style:normal;font-weight:normal;text-align:center;text-anchor:middle;fill:#000000;fill-opacity:1;stroke:none;stroke-width:1px;stroke-linecap:butt;stroke-linejoin:miter;stroke-opacity:1;font-family:Bitstream Vera Sans">*</text>
    </g>
    <circle cx="253.00" cy="434.00" r="20.00" stroke="#000000" stroke-width="1.4" fill="#ffffff"/>
    <path d="M 250.97 410.09 L 250.80 408.09 M 250.21 401.12 L 250.04 399.13 M 249.44 392.15 L 249.27 390.16 M 248.68 383.18 L 248.51 381.19 M 247.92 374.22 L 247.83 373.22 L 246.83 373.32 M 239.87 374.00 L 237.88 374.20 M 230.91 374.88 L 228.92 375.07 M 221.95 375.75 L 219.96 375.95 M 213.00 376.63 L 211.00 376.82 M 204.04 377.50 L 202.05 377.70 M 195.08 378.38 L 193.09 378.57 M 186.12 379.25 L 184.13 379.45 M 177.91 380.06 M 182.40 374.59 L 177.91 380.06 L 183.37 384.55" stroke="#000000" stroke-width="1.4" fill="none"/>
    <g>
      <text x="230.31" y="369.39" style="font-size:14px;font-style:normal;font-weight:normal;text-align:center;text-anchor:middle;fill:#ffffff;fill-opacity:1;stroke:none;stroke-width:1px;stroke-linecap:butt;stroke-linejoin:miter;stroke-opacity:1;font-family:Bitstream Vera Sans">&lt;3</text>
    </g>
    <g>
      <text x="230.31" y="369.39" style="font-size:14px;font-style:normal;font-weight:normal;text-align:center;text-anchor:middle;fill:#000000;fill-opacity:1;stroke:none;stroke-width:1px;stroke-linecap:butt;stroke-linejoin:miter;stroke-opacity:1;font-family:Bitstream Vera Sans">&lt;3</text>
    </g>
    <path d="M 394.10 509.00 L 409.00 523.90 L 423.90 509.00 L 409.00 494.10 L 394.10 509.00" stroke="#000000" stroke-width="1.4" fill="#ffffff"/>
    <path d="M 400.06 509.00 L 409.00 517.94 L 417.94 509.00 L 409.00 500.06 L 400.06 509.00" stroke="#000000" stroke-width="1.4" fill="#ffffff"/>
    <path d="M 343.14 449.94 L 397.22 414.88 M 395.74 421.80 L 397.22 414.88 L 390.30 413.41" stroke="#000000" stroke-width="1.4" fill="none"/>
    <path d="M 431.54 413.60 L 487.95 444.48 M 481.16 446.46 L 487.95 444.48 L 485.96 437.69" stroke="#000000" stroke-width="1.4" fill="none"/>
    <path d="M 426.67 499.63 L 487.79 467.24 M 485.72 474.00 L 487.79 467.24 L 481.03 465.16" stroke="#000000" stroke-width="1.4" fill="none"/>
    <path d="M 344.16 474.32 L 391.36 499.57 M 384.60 501.62 L 391.36 499.57 L 389.31 492.80" stroke="#000000" stroke-width="1.4" fill="none"/>
    <circle cx="323.00" cy="463.00" r="20.00" stroke="#000000" stroke-width="1.4" fill="#ffffff"/>
    <g>
      <circle cx="311.00" cy="461.00" r="6.00" stroke="none" stroke-width="0.0" fill="#000000"/>
      <circle cx="311.00" cy="461.00" r="4.00" stroke="none" stroke-width="0.0" fill="#808080"/>
      <circle cx="311.00" cy="461.00" r="3.00" stroke="none" stroke-width="0.0" fill="#000000"/>
    </g>
    <g>
      <circle cx="311.00" cy="457.00" r="6.00" stroke="none" stroke-width="0.0" fill="#000000"/>
      <circle cx="311.00" cy="457.00" r="4.00" stroke="none" stroke-width="0.0" fill="#808080"/>
      <circle cx="311.00" cy="457.00" r="3.00" stroke="none" stroke-width="0.0" fill="#000000"/>
    </g>
    <g>
      <circle cx="311.00" cy="453.00" r="6.00" stroke="none" stroke-width="0.0" fill="#000000"/>
      <circle cx="311.00" cy="453.00" r="4.00" stroke="none" stroke-width="0.0" fill="#808080"/>
      <circle cx="311.00" cy="453.00" r="3.00" stroke="none" stroke-width="0.0" fill="#000000"/>
    </g>
    <g>
      <circle cx="311.00" cy="449.00" r="6.00" stroke="none" stroke-width="0.0" fill="#000000"/>
      <circle cx="311.00" cy="449.00" r="4.00" stroke="none" stroke-width="0.0" fill="#808080"/>
      <circle cx="311.00" cy="449.00" r="3.00" stroke="none" stroke-width="0.0" fill="#000000"/>
    </g>
    <g>
      <circle cx="311.00" cy="445.00" r="6.00" stroke="none" stroke-width="0.0" fill="#000000"/>
      <circle cx="311.00" cy="445.00" r="4.00" stroke="none" stroke-width="0.0" fill="#808080"/>
      <circle cx="311.00" cy="445.00" r="3.00" stroke="none" stroke-width="0.0" fill="#000000"/>
    </g>
    <path d="M 399.10 404.00 L 414.00 418.90 L 428.90 404.00 L 414.00 389.10 L 399.10 404.00" stroke="#000000" stroke-width="1.4" fill="#ffffff"/>
    <g>
      <text x="428.40" y="406.80" style="font-size:27px;font-style:normal;font-weight:normal;text-align:center;text-anchor:middle;fill:#000000;fill-opacity:1;stroke:none;stroke-width:1px;stroke-linecap:butt;stroke-linejoin:miter;stroke-opacity:1;font-family:Bitstream Vera Sans">*</text>
    </g>
    <circle cx="509.00" cy="456.00" r="20.00" stroke="#000000" stroke-width="1.4" fill="#ffffff"/>
    <path d="M 325.26 439.11 L 325.45 437.12 M 326.14 430.15 L 326.33 428.16 M 327.02 421.19 L 327.22 419.20 M 327.90 412.24 L 328.10 410.25 M 328.78 403.28 L 328.98 401.29 M 329.11 400.00 M 334.80 400.27 L 336.80 400.36 M 343.79 400.69 L 345.79 400.79 M 352.78 401.12 L 354.78 401.21 M 361.77 401.54 L 363.77 401.63 M 370.76 401.96 L 372.76 402.06 M 379.75 402.39 L 381.75 402.48 M 388.74 402.81 L 390.74 402.90 M 394.02 403.06 M 388.79 407.82 L 394.02 403.06 L 389.26 397.83" stroke="#000000" stroke-width="1.4" fill="none"/>
    <g>
      <text x="341.47" y="415.09" style="font-size:14px;font-style:normal;font-weight:normal;text-align:center;text-anchor:middle;fill:#ffffff;fill-opacity:1;stroke:none;stroke-width:1px;stroke-linecap:butt;stroke-linejoin:miter;stroke-opacity:1;font-family:Bitstream Vera Sans">&lt;5</text>
    </g>
    <g>
      <text x="341.47" y="415.09" style="font-size:14px;font-style:normal;font-weight:normal;text-align:center;text-anchor:middle;fill:#000000;fill-opacity:1;stroke:none;stroke-width:1px;stroke-linecap:butt;stroke-linejoin:miter;stroke-opacity:1;font-family:Bitstream Vera Sans">&lt;5</text>
    </g>
    <path d="M 507.04 432.08 L 506.88 430.09 M 506.30 423.11 L 506.14 421.12 M 505.57 414.14 L 505.41 412.15 M 504.83 405.17 L 504.67 403.18 M 504.10 396.20 L 504.00 395.00 L 503.21 395.08 M 496.24 395.78 L 494.25 395.97 M 487.29 396.67 L 485.30 396.87 M 478.33 397.57 L 476.34 397.77 M 469.38 398.46 L 467.39 398.66 M 460.42 399.36 L 458.43 399.56 M 451.47 400.25 L 449.48 400.45 M 442.51 401.15 L 440.52 401.35 M 433.90 402.01 M 438.38 396.54 L 433.90 402.01 L 439.37 406.49" stroke="#000000" stroke-width="1.4" fill="none"/>
    <g>
      <text x="486.47" y="391.20" style="font-size:14px;font-style:normal;font-weight:normal;text-align:center;text-anchor:middle;fill:#ffffff;fill-opacity:1;stroke:none;stroke-width:1px;stroke-linecap:butt;stroke-linejoin:miter;stroke-opacity:1;font-family:Bitstream Vera Sans">&lt;4</text>
    </g>
    <g>
      <text x="486.47" y="391.20" style="font-size:14px;font-style:normal;font-weight:normal;text-align:center;text-anchor:middle;fill:#000000;fill-opacity:1;stroke:none;stroke-width:1px;stroke-linecap:butt;stroke-linejoin:miter;stroke-opacity:1;font-family:Bitstream Vera Sans">&lt;4</text>
    </g>
  </g>
</svg>