<svg width="12.00cm" height="11.20cm" viewBox="0 0 600 564" xmlns="http://www.w3.org/2000/svg" version="1.1">
  undefined
  undefined
  undefined
  undefined
  undefined
  undefined
  undefined
  undefined
  undefined
  undefined
  undefined
  undefined
  undefined
  undefined
  undefined
  undefined
  undefined
  undefined
  undefined
  undefined
  undefined
  undefined
  undefined
  undefined
  undefined
  undefined
  undefined
  undefined
  undefined
  undefined
  undefined
  undefined
  undefined
  undefined
  undefined
  undefined
  undefined
  undefined
  undefined
  undefined
  undefined
  undefined
  undefined
  undefined
  undefined
  undefined
  undefined
  undefined
  <g stroke-linecap="round" stroke-linejoin="round">
    <circle cx="120.00" cy="80.00" r="20.00" stroke="#000000" stroke-width="1.4" fill="#ffffff"/>
    <circle cx="120.00" cy="80.00" r="15.00" stroke="#000000" stroke-width="1.4" fill="#ffffff"/>
    <circle cx="40.00" cy="40.00" r="20.00" stroke="#000000" stroke-width="1.4" fill="#ffffff"/>
    <g>
      <circle cx="28.00" cy="38.00" r="6.00" stroke="none" stroke-width="0.0" fill="#000000"/>
      <circle cx="28.00" cy="38.00" r="4.00" stroke="none" stroke-width="0.0" fill="#808080"/>
      <circle cx="28.00" cy="38.00" r="3.00" stroke="none" stroke-width="0.0" fill="#000000"/>
    </g>
    <g>
      <circle cx="28.00" cy="34.00" r="6.00" stroke="none" stroke-width="0.0" fill="#000000"/>
      <circle cx="28.00" cy="34.00" r="4.00" stroke="none" stroke-width="0.0" fill="#808080"/>
      <circle cx="28.00" cy="34.00" r="3.00" stroke="none" stroke-width="0.0" fill="#000000"/>
    </g>
    <circle cx="40.00" cy="130.00" r="20.00" stroke="#000000" stroke-width="1.4" fill="#ffffff"/>
    <g>
      <circle cx="28.00" cy="128.00" r="6.00" stroke="none" stroke-width="0.0" fill="#000000"/>
      <circle cx="28.00" cy="128.00" r="4.00" stroke="none" stroke-width="0.0" fill="#808080"/>
      <circle cx="28.00" cy="128.00" r="3.00" stroke="none" stroke-width="0.0" fill="#000000"/>
    </g>
    <path d="M 60.35 117.28 L 99.65 92.72 M 98.06 99.61 L 99.65 92.72 L 92.76 91.13" stroke="#000000" stroke-width="1.4" fill="none"/>
    <path d="M 61.47 50.73 L 98.53 69.27 M 91.83 71.50 L 98.53 69.27 L 96.30 62.56" stroke="#000000" stroke-width="1.4" fill="none"/>
    <g>
      <text x="75.53" y="73.44" style="font-size:14px;font-style:normal;font-weight:normal;text-align:right;text-anchor:end;fill:#ffffff;fill-opacity:1;stroke:none;stroke-width:1px;stroke-linecap:butt;stroke-linejoin:miter;stroke-opacity:1;font-family:Bitstream Vera Sans">2</text>
    </g>
    <g>
      <text x="75.53" y="73.44" style="font-size:14px;font-style:normal;font-weight:normal;text-align:right;text-anchor:end;fill:#000000;fill-opacity:1;stroke:none;stroke-width:1px;stroke-linecap:butt;stroke-linejoin:miter;stroke-opacity:1;font-family:Bitstream Vera Sans">2</text>
    </g>
    <path d="M 246.18 51.29 L 278.82 68.71 M 272.06 70.76 L 278.82 68.71 L 276.76 61.94" stroke="#000000" stroke-width="1.4" fill="none"/>
    <circle cx="226.00" cy="128.00" r="20.00" stroke="#000000" stroke-width="1.4" fill="#ffffff"/>
    <g>
      <circle cx="214.00" cy="126.00" r="6.00" stroke="none" stroke-width="0.0" fill="#000000"/>
      <circle cx="214.00" cy="126.00" r="4.00" stroke="none" stroke-width="0.0" fill="#808080"/>
      <circle cx="214.00" cy="126.00" r="3.00" stroke="none" stroke-width="0.0" fill="#000000"/>
    </g>
    <circle cx="225.00" cy="40.00" r="20.00" stroke="#000000" stroke-width="1.4" fill="#ffffff"/>
    <g>
      <circle cx="213.00" cy="38.00" r="6.00" stroke="none" stroke-width="0.0" fill="#000000"/>
      <circle cx="213.00" cy="38.00" r="4.00" stroke="none" stroke-width="0.0" fill="#808080"/>
      <circle cx="213.00" cy="38.00" r="3.00" stroke="none" stroke-width="0.0" fill="#000000"/>
    </g>
    <g>
      <circle cx="213.00" cy="34.00" r="6.00" stroke="none" stroke-width="0.0" fill="#000000"/>
      <circle cx="213.00" cy="34.00" r="4.00" stroke="none" stroke-width="0.0" fill="#808080"/>
      <circle cx="213.00" cy="34.00" r="3.00" stroke="none" stroke-width="0.0" fill="#000000"/>
    </g>
    <path d="M 246.14 114.94 L 279.86 93.06 M 278.39 99.98 L 279.86 93.06 L 272.95 91.59" stroke="#000000" stroke-width="1.4" fill="none"/>
    <g>
      <text x="268.44" y="116.89" style="font-size:14px;font-style:normal;font-weight:normal;text-align:left;text-anchor:start;fill:#ffffff;fill-opacity:1;stroke:none;stroke-width:1px;stroke-linecap:butt;stroke-linejoin:miter;stroke-opacity:1;font-family:Bitstream Vera Sans">2</text>
    </g>
    <g>
      <text x="268.44" y="116.89" style="font-size:14px;font-style:normal;font-weight:normal;text-align:left;text-anchor:start;fill:#000000;fill-opacity:1;stroke:none;stroke-width:1px;stroke-linecap:butt;stroke-linejoin:miter;stroke-opacity:1;font-family:Bitstream Vera Sans">2</text>
    </g>
    <path d="M 410.58 37.88 L 450.42 66.12 M 443.45 67.31 L 450.42 66.12 L 449.23 59.15" stroke="#000000" stroke-width="1.4" fill="none"/>
    <path d="M 402.12 116.61 L 448.88 91.39 M 446.85 98.17 L 448.88 91.39 L 442.10 89.37" stroke="#000000" stroke-width="1.4" fill="none"/>
    <circle cx="381.00" cy="128.00" r="20.00" stroke="#000000" stroke-width="1.4" fill="#ffffff"/>
    <g>
      <circle cx="369.00" cy="126.00" r="6.00" stroke="none" stroke-width="0.0" fill="#000000"/>
      <circle cx="369.00" cy="126.00" r="4.00" stroke="none" stroke-width="0.0" fill="#808080"/>
      <circle cx="369.00" cy="126.00" r="3.00" stroke="none" stroke-width="0.0" fill="#000000"/>
    </g>
    <circle cx="391.00" cy="24.00" r="20.00" stroke="#000000" stroke-width="1.4" fill="#ffffff"/>
    <g>
      <circle cx="379.00" cy="22.00" r="6.00" stroke="none" stroke-width="0.0" fill="#000000"/>
      <circle cx="379.00" cy="22.00" r="4.00" stroke="none" stroke-width="0.0" fill="#808080"/>
      <circle cx="379.00" cy="22.00" r="3.00" stroke="none" stroke-width="0.0" fill="#000000"/>
    </g>
    <g>
      <circle cx="379.00" cy="18.00" r="6.00" stroke="none" stroke-width="0.0" fill="#000000"/>
      <circle cx="379.00" cy="18.00" r="4.00" stroke="none" stroke-width="0.0" fill="#808080"/>
      <circle cx="379.00" cy="18.00" r="3.00" stroke="none" stroke-width="0.0" fill="#000000"/>
    </g>
    <circle cx="470.00" cy="80.00" r="20.00" stroke="#000000" stroke-width="1.4" fill="#ffffff"/>
    <circle cx="470.00" cy="80.00" r="15.00" stroke="#000000" stroke-width="1.4" fill="#ffffff"/>
    <g>
      <text x="492.00" y="99.00" style="font-size:15px;font-style:normal;font-weight:normal;text-align:center;text-anchor:middle;fill:#000000;fill-opacity:1;stroke:none;stroke-width:1px;stroke-linecap:butt;stroke-linejoin:miter;stroke-opacity:1;font-family:Bitstream Vera Sans">&amp;</text>
    </g>
    <circle cx="300.00" cy="80.00" r="20.00" stroke="#000000" stroke-width="1.4" fill="#ffffff"/>
    <circle cx="300.00" cy="80.00" r="15.00" stroke="#000000" stroke-width="1.4" fill="#ffffff"/>
    <path d="M 61.78 233.07 L 98.22 249.93 M 91.58 252.36 L 98.22 249.93 L 95.78 243.29" stroke="#000000" stroke-width="1.4" fill="none"/>
    <path d="M 60.58 295.65 L 99.42 272.35 M 97.71 279.21 L 99.42 272.35 L 92.56 270.63" stroke="#000000" stroke-width="1.4" fill="none"/>
    <g>
      <text x="85.14" y="297.07" style="font-size:14px;font-style:normal;font-weight:normal;text-align:left;text-anchor:start;fill:#ffffff;fill-opacity:1;stroke:none;stroke-width:1px;stroke-linecap:butt;stroke-linejoin:miter;stroke-opacity:1;font-family:Bitstream Vera Sans">2</text>
    </g>
    <g>
      <text x="85.14" y="297.07" style="font-size:14px;font-style:normal;font-weight:normal;text-align:left;text-anchor:start;fill:#000000;fill-opacity:1;stroke:none;stroke-width:1px;stroke-linecap:butt;stroke-linejoin:miter;stroke-opacity:1;font-family:Bitstream Vera Sans">2</text>
    </g>
    <circle cx="120.00" cy="260.00" r="20.00" stroke="#000000" stroke-width="1.4" fill="#ffffff"/>
    <circle cx="120.00" cy="260.00" r="15.00" stroke="#000000" stroke-width="1.4" fill="#ffffff"/>
    <g>
      <text x="142.00" y="279.00" style="font-size:15px;font-style:normal;font-weight:normal;text-align:center;text-anchor:middle;fill:#000000;fill-opacity:1;stroke:none;stroke-width:1px;stroke-linecap:butt;stroke-linejoin:miter;stroke-opacity:1;font-family:Bitstream Vera Sans">&amp;</text>
    </g>
    <path d="M 413.85 270.07 L 458.15 249.93 M 455.67 256.55 L 458.15 249.93 L 451.53 247.45" stroke="#000000" stroke-width="1.4" fill="none"/>
    <circle cx="480.00" cy="240.00" r="20.00" stroke="#000000" stroke-width="1.4" fill="#ffffff"/>
    <circle cx="480.00" cy="240.00" r="15.00" stroke="#000000" stroke-width="1.4" fill="#ffffff"/>
    <g>
      <circle cx="468.00" cy="238.00" r="6.00" stroke="none" stroke-width="0.0" fill="#000000"/>
      <circle cx="468.00" cy="238.00" r="4.00" stroke="none" stroke-width="0.0" fill="#808080"/>
      <circle cx="468.00" cy="238.00" r="3.00" stroke="none" stroke-width="0.0" fill="#000000"/>
    </g>
    <circle cx="392.00" cy="200.00" r="20.00" stroke="#000000" stroke-width="1.4" fill="#ffffff"/>
    <g>
      <circle cx="380.00" cy="198.00" r="6.00" stroke="none" stroke-width="0.0" fill="#000000"/>
      <circle cx="380.00" cy="198.00" r="4.00" stroke="none" stroke-width="0.0" fill="#808080"/>
      <circle cx="380.00" cy="198.00" r="3.00" stroke="none" stroke-width="0.0" fill="#000000"/>
    </g>
    <g>
      <circle cx="380.00" cy="194.00" r="6.00" stroke="none" stroke-width="0.0" fill="#000000"/>
      <circle cx="380.00" cy="194.00" r="4.00" stroke="none" stroke-width="0.0" fill="#808080"/>
      <circle cx="380.00" cy="194.00" r="3.00" stroke="none" stroke-width="0.0" fill="#000000"/>
    </g>
    <circle cx="392.00" cy="280.00" r="20.00" stroke="#000000" stroke-width="1.4" fill="#ffffff"/>
    <g>
      <circle cx="380.00" cy="278.00" r="6.00" stroke="none" stroke-width="0.0" fill="#000000"/>
      <circle cx="380.00" cy="278.00" r="4.00" stroke="none" stroke-width="0.0" fill="#808080"/>
      <circle cx="380.00" cy="278.00" r="3.00" stroke="none" stroke-width="0.0" fill="#000000"/>
    </g>
    <path d="M 413.85 209.93 L 458.15 230.07 M 451.53 232.55 L 458.15 230.07 L 455.67 223.45" stroke="#000000" stroke-width="1.4" fill="none"/>
    <g>
      <text x="431.86" y="233.60" style="font-size:14px;font-style:normal;font-weight:normal;text-align:right;text-anchor:end;fill:#ffffff;fill-opacity:1;stroke:none;stroke-width:1px;stroke-linecap:butt;stroke-linejoin:miter;stroke-opacity:1;font-family:Bitstream Vera Sans">0</text>
    </g>
    <g>
      <text x="431.86" y="233.60" style="font-size:14px;font-style:normal;font-weight:normal;text-align:right;text-anchor:end;fill:#000000;fill-opacity:1;stroke:none;stroke-width:1px;stroke-linecap:butt;stroke-linejoin:miter;stroke-opacity:1;font-family:Bitstream Vera Sans">0</text>
    </g>
    <circle cx="40.00" cy="223.00" r="20.00" stroke="#000000" stroke-width="1.4" fill="#ffffff"/>
    <g>
      <circle cx="28.00" cy="221.00" r="6.00" stroke="none" stroke-width="0.0" fill="#000000"/>
      <circle cx="28.00" cy="221.00" r="4.00" stroke="none" stroke-width="0.0" fill="#808080"/>
      <circle cx="28.00" cy="221.00" r="3.00" stroke="none" stroke-width="0.0" fill="#000000"/>
    </g>
    <g>
      <circle cx="28.00" cy="217.00" r="6.00" stroke="none" stroke-width="0.0" fill="#000000"/>
      <circle cx="28.00" cy="217.00" r="4.00" stroke="none" stroke-width="0.0" fill="#808080"/>
      <circle cx="28.00" cy="217.00" r="3.00" stroke="none" stroke-width="0.0" fill="#000000"/>
    </g>
    <g>
      <circle cx="28.00" cy="213.00" r="6.00" stroke="none" stroke-width="0.0" fill="#000000"/>
      <circle cx="28.00" cy="213.00" r="4.00" stroke="none" stroke-width="0.0" fill="#808080"/>
      <circle cx="28.00" cy="213.00" r="3.00" stroke="none" stroke-width="0.0" fill="#000000"/>
    </g>
    <g>
      <circle cx="28.00" cy="209.00" r="6.00" stroke="none" stroke-width="0.0" fill="#000000"/>
      <circle cx="28.00" cy="209.00" r="4.00" stroke="none" stroke-width="0.0" fill="#808080"/>
      <circle cx="28.00" cy="209.00" r="3.00" stroke="none" stroke-width="0.0" fill="#000000"/>
    </g>
    <circle cx="40.00" cy="308.00" r="20.00" stroke="#000000" stroke-width="1.4" fill="#ffffff"/>
    <g>
      <circle cx="28.00" cy="306.00" r="6.00" stroke="none" stroke-width="0.0" fill="#000000"/>
      <circle cx="28.00" cy="306.00" r="4.00" stroke="none" stroke-width="0.0" fill="#808080"/>
      <circle cx="28.00" cy="306.00" r="3.00" stroke="none" stroke-width="0.0" fill="#000000"/>
    </g>
    <g>
      <circle cx="28.00" cy="302.00" r="6.00" stroke="none" stroke-width="0.0" fill="#000000"/>
      <circle cx="28.00" cy="302.00" r="4.00" stroke="none" stroke-width="0.0" fill="#808080"/>
      <circle cx="28.00" cy="302.00" r="3.00" stroke="none" stroke-width="0.0" fill="#000000"/>
    </g>
    <g>
      <circle cx="28.00" cy="298.00" r="6.00" stroke="none" stroke-width="0.0" fill="#000000"/>
      <circle cx="28.00" cy="298.00" r="4.00" stroke="none" stroke-width="0.0" fill="#808080"/>
      <circle cx="28.00" cy="298.00" r="3.00" stroke="none" stroke-width="0.0" fill="#000000"/>
    </g>
    <path d="M 236.83 278.02 L 298.17 249.98 M 295.70 256.60 L 298.17 249.98 L 291.55 247.51" stroke="#000000" stroke-width="1.4" fill="none"/>
    <g>
      <text x="271.66" y="277.59" style="font-size:14px;font-style:normal;font-weight:normal;text-align:left;text-anchor:start;fill:#ffffff;fill-opacity:1;stroke:none;stroke-width:1px;stroke-linecap:butt;stroke-linejoin:miter;stroke-opacity:1;font-family:Bitstream Vera Sans">1</text>
    </g>
    <g>
      <text x="271.66" y="277.59" style="font-size:14px;font-style:normal;font-weight:normal;text-align:left;text-anchor:start;fill:#000000;fill-opacity:1;stroke:none;stroke-width:1px;stroke-linecap:butt;stroke-linejoin:miter;stroke-opacity:1;font-family:Bitstream Vera Sans">1</text>
    </g>
    <circle cx="215.00" cy="288.00" r="20.00" stroke="#000000" stroke-width="1.4" fill="#ffffff"/>
    <g>
      <circle cx="203.00" cy="286.00" r="6.00" stroke="none" stroke-width="0.0" fill="#000000"/>
      <circle cx="203.00" cy="286.00" r="4.00" stroke="none" stroke-width="0.0" fill="#808080"/>
      <circle cx="203.00" cy="286.00" r="3.00" stroke="none" stroke-width="0.0" fill="#000000"/>
    </g>
    <path d="M 231.28 217.82 L 296.72 234.18 M 290.65 237.82 L 296.72 234.18 L 293.08 228.12" stroke="#000000" stroke-width="1.4" fill="none"/>
    <g>
      <text x="261.57" y="240.20" style="font-size:14px;font-style:normal;font-weight:normal;text-align:center;text-anchor:middle;fill:#ffffff;fill-opacity:1;stroke:none;stroke-width:1px;stroke-linecap:butt;stroke-linejoin:miter;stroke-opacity:1;font-family:Bitstream Vera Sans">2</text>
    </g>
    <g>
      <text x="261.57" y="240.20" style="font-size:14px;font-style:normal;font-weight:normal;text-align:center;text-anchor:middle;fill:#000000;fill-opacity:1;stroke:none;stroke-width:1px;stroke-linecap:butt;stroke-linejoin:miter;stroke-opacity:1;font-family:Bitstream Vera Sans">2</text>
    </g>
    <circle cx="320.00" cy="240.00" r="20.00" stroke="#000000" stroke-width="1.4" fill="#ffffff"/>
    <circle cx="320.00" cy="240.00" r="15.00" stroke="#000000" stroke-width="1.4" fill="#ffffff"/>
    <g>
      <text x="342.00" y="259.00" style="font-size:15px;font-style:normal;font-weight:normal;text-align:center;text-anchor:middle;fill:#000000;fill-opacity:1;stroke:none;stroke-width:1px;stroke-linecap:butt;stroke-linejoin:miter;stroke-opacity:1;font-family:Bitstream Vera Sans">&amp;</text>
    </g>
    <g>
      <circle cx="308.00" cy="238.00" r="6.00" stroke="none" stroke-width="0.0" fill="#000000"/>
      <circle cx="308.00" cy="238.00" r="4.00" stroke="none" stroke-width="0.0" fill="#808080"/>
      <circle cx="308.00" cy="238.00" r="3.00" stroke="none" stroke-width="0.0" fill="#000000"/>
    </g>
    <circle cx="208.00" cy="212.00" r="20.00" stroke="#000000" stroke-width="1.4" fill="#ffffff"/>
    <g>
      <circle cx="196.00" cy="210.00" r="6.00" stroke="none" stroke-width="0.0" fill="#000000"/>
      <circle cx="196.00" cy="210.00" r="4.00" stroke="none" stroke-width="0.0" fill="#808080"/>
      <circle cx="196.00" cy="210.00" r="3.00" stroke="none" stroke-width="0.0" fill="#000000"/>
    </g>
    <g>
      <circle cx="196.00" cy="206.00" r="6.00" stroke="none" stroke-width="0.0" fill="#000000"/>
      <circle cx="196.00" cy="206.00" r="4.00" stroke="none" stroke-width="0.0" fill="#808080"/>
      <circle cx="196.00" cy="206.00" r="3.00" stroke="none" stroke-width="0.0" fill="#000000"/>
    </g>
    <circle cx="212.00" cy="377.00" r="20.00" stroke="#000000" stroke-width="1.4" fill="#ffffff"/>
    <circle cx="218.00" cy="480.00" r="20.00" stroke="#000000" stroke-width="1.4" fill="#ffffff"/>
    <path d="M 80.02 394.54 L 125.98 414.46 M 119.40 417.06 L 125.98 414.46 L 123.38 407.88" stroke="#000000" stroke-width="1.4" fill="none"/>
    <path d="M 167.34 409.79 L 192.66 391.21 M 191.59 398.20 L 192.66 391.21 L 185.67 390.14" stroke="#000000" stroke-width="1.4" fill="none"/>
    <path d="M 70.00 464.00 L 126.64 434.95 M 124.48 441.68 L 126.64 434.95 L 119.91 432.78" stroke="#000000" stroke-width="1.4" fill="none"/>
    <path d="M 166.74 438.99 L 199.26 465.01 M 192.23 465.79 L 199.26 465.01 L 198.48 457.98" stroke="#000000" stroke-width="1.4" fill="none"/>
    <circle cx="58.00" cy="385.00" r="20.00" stroke="#000000" stroke-width="1.4" fill="#ffffff"/>
    <g>
      <circle cx="46.00" cy="383.00" r="6.00" stroke="none" stroke-width="0.0" fill="#000000"/>
      <circle cx="46.00" cy="383.00" r="4.00" stroke="none" stroke-width="0.0" fill="#808080"/>
      <circle cx="46.00" cy="383.00" r="3.00" stroke="none" stroke-width="0.0" fill="#000000"/>
    </g>
    <g>
      <circle cx="46.00" cy="379.00" r="6.00" stroke="none" stroke-width="0.0" fill="#000000"/>
      <circle cx="46.00" cy="379.00" r="4.00" stroke="none" stroke-width="0.0" fill="#808080"/>
      <circle cx="46.00" cy="379.00" r="3.00" stroke="none" stroke-width="0.0" fill="#000000"/>
    </g>
    <circle cx="58.00" cy="480.00" r="20.00" stroke="#000000" stroke-width="1.4" fill="#ffffff"/>
    <g>
      <circle cx="46.00" cy="478.00" r="6.00" stroke="none" stroke-width="0.0" fill="#000000"/>
      <circle cx="46.00" cy="478.00" r="4.00" stroke="none" stroke-width="0.0" fill="#808080"/>
      <circle cx="46.00" cy="478.00" r="3.00" stroke="none" stroke-width="0.0" fill="#000000"/>
    </g>
    <circle cx="148.00" cy="424.00" r="20.00" stroke="#000000" stroke-width="1.4" fill="#ffffff"/>
    <circle cx="148.00" cy="424.00" r="15.00" stroke="#000000" stroke-width="1.4" fill="#ffffff"/>
    <g>
      <text x="170.00" y="443.00" style="font-size:15px;font-style:normal;font-weight:normal;text-align:center;text-anchor:middle;fill:#000000;fill-opacity:1;stroke:none;stroke-width:1px;stroke-linecap:butt;stroke-linejoin:miter;stroke-opacity:1;font-family:Bitstream Vera Sans">p</text>
    </g>
    <g>
      <circle cx="136.00" cy="422.00" r="6.00" stroke="none" stroke-width="0.0" fill="#000000"/>
      <circle cx="136.00" cy="422.00" r="4.00" stroke="none" stroke-width="0.0" fill="#808080"/>
      <circle cx="136.00" cy="422.00" r="3.00" stroke="none" stroke-width="0.0" fill="#000000"/>
    </g>
    <circle cx="488.00" cy="490.00" r="20.00" stroke="#000000" stroke-width="1.4" fill="#ffffff"/>
    <path d="M 350.02 404.54 L 395.98 424.46 M 389.40 427.06 L 395.98 424.46 L 393.38 417.88" stroke="#000000" stroke-width="1.4" fill="none"/>
    <path d="M 437.34 419.79 L 462.66 401.21 M 461.59 408.20 L 462.66 401.21 L 455.67 400.14" stroke="#000000" stroke-width="1.4" fill="none"/>
    <path d="M 340.00 474.00 L 394.09 436.06 M 392.87 443.03 L 394.09 436.06 L 387.12 434.84" stroke="#000000" stroke-width="1.4" fill="none"/>
    <path d="M 436.74 448.99 L 469.26 475.01 M 462.23 475.79 L 469.26 475.01 L 468.48 467.98" stroke="#000000" stroke-width="1.4" fill="none"/>
    <circle cx="328.00" cy="395.00" r="20.00" stroke="#000000" stroke-width="1.4" fill="#ffffff"/>
    <g>
      <circle cx="316.00" cy="393.00" r="6.00" stroke="none" stroke-width="0.0" fill="#000000"/>
      <circle cx="316.00" cy="393.00" r="4.00" stroke="none" stroke-width="0.0" fill="#808080"/>
      <circle cx="316.00" cy="393.00" r="3.00" stroke="none" stroke-width="0.0" fill="#000000"/>
    </g>
    <g>
      <circle cx="316.00" cy="389.00" r="6.00" stroke="none" stroke-width="0.0" fill="#000000"/>
      <circle cx="316.00" cy="389.00" r="4.00" stroke="none" stroke-width="0.0" fill="#808080"/>
      <circle cx="316.00" cy="389.00" r="3.00" stroke="none" stroke-width="0.0" fill="#000000"/>
    </g>
    <circle cx="328.00" cy="490.00" r="20.00" stroke="#000000" stroke-width="1.4" fill="#ffffff"/>
    <g>
      <circle cx="316.00" cy="488.00" r="6.00" stroke="none" stroke-width="0.0" fill="#000000"/>
      <circle cx="316.00" cy="488.00" r="4.00" stroke="none" stroke-width="0.0" fill="#808080"/>
      <circle cx="316.00" cy="488.00" r="3.00" stroke="none" stroke-width="0.0" fill="#000000"/>
    </g>
    <circle cx="482.00" cy="387.00" r="20.00" stroke="#000000" stroke-width="1.4" fill="#ffffff"/>
    <circle cx="418.00" cy="434.00" r="20.00" stroke="#000000" stroke-width="1.4" fill="#ffffff"/>
    <circle cx="418.00" cy="434.00" r="15.00" stroke="#000000" stroke-width="1.4" fill="#ffffff"/>
    <g>
      <text x="444.00" y="453.00" style="font-size:15px;font-style:normal;font-weight:normal;text-align:center;text-anchor:middle;fill:#000000;fill-opacity:1;stroke:none;stroke-width:1px;stroke-linecap:butt;stroke-linejoin:miter;stroke-opacity:1;font-family:Bitstream Vera Sans">p&amp;</text>
    </g>
    <g>
      <circle cx="406.00" cy="432.00" r="6.00" stroke="none" stroke-width="0.0" fill="#000000"/>
      <circle cx="406.00" cy="432.00" r="4.00" stroke="none" stroke-width="0.0" fill="#808080"/>
      <circle cx="406.00" cy="432.00" r="3.00" stroke="none" stroke-width="0.0" fill="#000000"/>
    </g>
  </g>
</svg>